<?xml version="1.0" encoding="UTF-8" standalone="no"?>
<svg
   width="128px"
   height="128px"
   viewBox="0 0 128 128"
   fill="none"
   version="1.1"
   id="svg1"
   sodipodi:docname="github.svg"
   inkscape:version="1.3.2 (091e20e, 2023-11-25)"
   xmlns:inkscape="http://www.inkscape.org/namespaces/inkscape"
   xmlns:sodipodi="http://sodipodi.sourceforge.net/DTD/sodipodi-0.dtd"
   xmlns="http://www.w3.org/2000/svg"
   xmlns:svg="http://www.w3.org/2000/svg">
  <defs
     id="defs1" />
  <sodipodi:namedview
     id="namedview1"
     pagecolor="#505050"
     bordercolor="#eeeeee"
     borderopacity="1"
     inkscape:showpageshadow="0"
     inkscape:pageopacity="0"
     inkscape:pagecheckerboard="0"
     inkscape:deskcolor="#505050"
     inkscape:zoom="1.84375"
     inkscape:cx="63.728814"
     inkscape:cy="64"
     inkscape:window-width="1512"
     inkscape:window-height="945"
     inkscape:window-x="0"
     inkscape:window-y="37"
     inkscape:window-maximized="0"
     inkscape:current-layer="svg1" />
  <path
     fill-rule="evenodd"
     clip-rule="evenodd"
     d="m 63.999998,1.5788726 c -35.36,0 -64.000000205,28.6400004 -64.000000205,64.0000004 0,28.32 18.320000205,52.239997 43.760000205,60.719997 3.2,0.56 4.4,-1.36 4.4,-3.04 0,-1.52 -0.08,-6.56 -0.08,-11.92 -16.08,2.96 -20.24,-3.92 -21.52,-7.52 -0.72,-1.84 -3.84,-7.519997 -6.56,-9.039997 -2.24,-1.2 -5.44,-4.16 -0.08,-4.24 5.04,-0.08 8.64,4.64 9.84,6.56 5.76,9.679997 14.96,6.959997 18.64,5.279997 0.56,-4.159997 2.24,-6.959997 4.08,-8.559997 -14.24,-1.6 -29.12,-7.12 -29.12,-31.6 0,-6.96 2.48,-12.72 6.56,-17.2 -0.64,-1.6 -2.88,-8.16 0.64,-16.96 0,0 5.36,-1.68 17.6,6.56 5.12,-1.44 10.56,-2.16 16,-2.16 5.44,0 10.88,0.72 16,2.16 12.24,-8.32 17.6,-6.56 17.6,-6.56 3.520002,8.8 1.28,15.36 0.64,16.96 4.080002,4.48 6.560002,10.16 6.560002,17.2 0,24.56 -14.960002,30 -29.200002,31.6 2.32,2 4.32,5.84 4.32,11.839997 0,8.56 -0.08,15.44 -0.08,17.6 0,1.68 1.2,3.68 4.4,3.04 C 109.68,117.81887 128,93.818873 128,65.578873 128,30.218873 99.359998,1.5788726 63.999998,1.5788726 Z"
     fill="currentColor"
     id="icon"
     style="stroke-width:8" />
</svg>
