<?xml version="1.0" encoding="UTF-8" standalone="no"?>
<svg
   viewBox="0 0 128 128"
   aria-hidden="true"
   width="128px"
   height="128px"
   version="1.1"
   id="svg1"
   sodipodi:docname="linkedin.svg"
   inkscape:version="1.3.2 (091e20e, 2023-11-25)"
   xmlns:inkscape="http://www.inkscape.org/namespaces/inkscape"
   xmlns:sodipodi="http://sodipodi.sourceforge.net/DTD/sodipodi-0.dtd"
   xmlns="http://www.w3.org/2000/svg"
   xmlns:svg="http://www.w3.org/2000/svg">
  <defs
     id="defs1" />
  <sodipodi:namedview
     id="namedview1"
     pagecolor="#505050"
     bordercolor="#eeeeee"
     borderopacity="1"
     inkscape:showpageshadow="0"
     inkscape:pageopacity="0"
     inkscape:pagecheckerboard="0"
     inkscape:deskcolor="#505050"
     inkscape:zoom="1.84375"
     inkscape:cx="63.728814"
     inkscape:cy="64"
     inkscape:window-width="1312"
     inkscape:window-height="449"
     inkscape:window-x="0"
     inkscape:window-y="38"
     inkscape:window-maximized="0"
     inkscape:current-layer="svg1" />
  <g
     fill="none"
     fill-rule="evenodd"
     id="icon"
     transform="scale(1.7777778)">
    <path
       d="m 8,72 h 56 c 4.418278,0 8,-3.581722 8,-8 V 8 C 72,3.581722 68.418278,0 64,0 H 8 C 3.581722,0 0,3.581722 0,8 v 56 c 0,4.418278 3.581722,8 8,8 z M 62,62 H 51.315625 V 43.802115 c 0,-4.989361 -1.895833,-7.777583 -5.844922,-7.777583 -4.296094,0 -6.540625,2.901578 -6.540625,7.777583 V 62 H 28.633333 V 27.333333 h 10.296745 v 4.669595 c 0,0 3.095964,-5.728713 10.452474,-5.728713 C 56.735677,26.274215 62,30.764471 62,40.051212 Z M 16.349349,22.794013 C 12.842057,22.794013 10,19.929657 10,16.397007 10,12.864357 12.842057,10 16.349349,10 c 3.507292,0 6.347656,2.864357 6.347656,6.397007 0,3.53265 -2.840364,6.397006 -6.347656,6.397006 z M 11.032552,62 H 21.769401 V 27.333333 H 11.032552 Z"
       fill="currentColor"
       id="path1" />
  </g>
</svg>
