<?xml version="1.0" encoding="UTF-8" standalone="no"?>
<svg
   viewBox="0 0 128 128"
   aria-hidden="true"
   width="128"
   height="128"
   version="1.1"
   id="svg1"
   sodipodi:docname="mastodon.svg"
   inkscape:version="1.3.2 (091e20e, 2023-11-25)"
   xmlns:inkscape="http://www.inkscape.org/namespaces/inkscape"
   xmlns:sodipodi="http://sodipodi.sourceforge.net/DTD/sodipodi-0.dtd"
   xmlns="http://www.w3.org/2000/svg"
   xmlns:svg="http://www.w3.org/2000/svg">
  <sodipodi:namedview
     id="namedview1"
     pagecolor="#505050"
     bordercolor="#eeeeee"
     borderopacity="1"
     inkscape:showpageshadow="0"
     inkscape:pageopacity="0"
     inkscape:pagecheckerboard="0"
     inkscape:deskcolor="#505050"
     inkscape:zoom="1.84375"
     inkscape:cx="63.728814"
     inkscape:cy="64"
     inkscape:window-width="1312"
     inkscape:window-height="449"
     inkscape:window-x="0"
     inkscape:window-y="38"
     inkscape:window-maximized="0"
     inkscape:current-layer="svg1" />
  <defs
     id="defs1" />
  <path
     fill="currentColor"
     d="M 89.518642,97.562425 C 105.64705,95.642377 119.67939,85.762131 121.43944,76.737907 124.22351,62.513553 123.9995,42.025043 123.9995,42.025043 123.9995,14.264354 105.71105,6.1201518 105.71105,6.1201518 96.494816,1.9040468 80.662422,0.13600278 64.214014,-6.1681182e-7 H 63.814002 C 47.357594,0.13600278 31.5332,1.9040468 22.316972,6.1201518 c 0,0 -18.2804548,8.1362012 -18.2804548,35.9048912 l -0.016,5.296134 c -0.032,5.120126 -0.056,10.800266 0.088,16.728414 0.664018,27.152676 5.008126,53.921339 30.2407508,60.561509 11.632288,3.06407 21.624538,3.70409 29.672738,3.26408 14.584362,-0.80002 22.776566,-5.17613 22.776566,-5.17613 L 86.31856,112.16279 c 0,0 -10.42426,3.28008 -22.13655,2.88007 -11.60029,-0.40001 -23.840592,-1.24803 -25.72064,-15.424383 a 28.912718,28.912718 0 0 1 -0.264006,-3.9681 c 0,0 11.392282,2.768068 25.824642,3.424084 8.82422,0.400012 17.096424,-0.512012 25.504634,-1.512036 z M 102.42296,77.801933 H 89.03863 V 45.161121 c 0,-6.87217 -2.912072,-10.360258 -8.728218,-10.360258 -6.43216,0 -9.656238,4.136104 -9.656238,12.328308 V 64.993613 H 57.341842 V 47.121171 c 0,-8.192204 -3.22408,-12.328308 -9.65624,-12.328308 -5.816146,0 -8.728216,3.488088 -8.728216,10.368258 V 77.793933 H 25.573052 V 44.177099 c 0,-6.872172 1.760044,-12.328308 5.28013,-16.36841 3.648092,-4.0401 8.41621,-6.112152 14.344358,-6.112152 6.84817,0 12.0323,2.624068 15.464384,7.864196 l 3.336084,5.56014 3.336082,-5.56014 c 3.432086,-5.240128 8.616214,-7.864196 15.472386,-7.864196 5.920146,0 10.688266,2.072052 14.328356,6.112152 3.536088,4.040102 5.288128,9.496238 5.288128,16.36841 z"
     id="icon"
     style="stroke-width:8.0002" />
</svg>
