<?xml version="1.0" encoding="UTF-8" standalone="no"?>
<svg
   viewBox="0 0 64 64"
   aria-hidden="true"
   width="128"
   height="128"
   version="1.1"
   id="svg1"
   xmlns="http://www.w3.org/2000/svg"
   xmlns:svg="http://www.w3.org/2000/svg">
  <defs
     id="defs1" />
  <path
     fill="currentColor"
     d="m 44.759321,48.781213 c 8.064201,-0.960024 15.080375,-5.900147 15.960396,-10.412259 1.392036,-7.112177 1.280032,-17.356432 1.280032,-17.356432 0,-13.8803445 -9.144227,-17.9524457 -9.144227,-17.9524457 C 48.247408,0.9520238 40.331211,0.06800182 32.107007,1.2112322e-7 H 31.907001 C 23.678797,0.06800182 15.7666,0.9520238 11.158486,3.0600763 c 0,0 -9.1402274,4.068101 -9.1402274,17.9524457 l -0.008,2.648067 c -0.016,2.560063 -0.028,5.400133 0.044,8.364207 0.332009,13.576338 2.504063,26.96067 15.1203754,30.280753 5.816144,1.532038 10.812269,1.852046 14.836369,1.63204 7.292181,-0.40001 11.388283,-2.588064 11.388283,-2.588064 L 43.15928,56.081394 c 0,0 -5.21213,1.640041 -11.068275,1.440036 -5.800145,-0.200005 -11.920296,-0.624015 -12.86032,-7.712191 a 14.456359,14.456359 0 0 1 -0.132003,-1.98405 c 0,0 5.696141,1.384034 12.912321,1.712042 4.41211,0.200006 8.548212,-0.256006 12.752317,-0.756018 z m 6.45216,-9.880246 H 44.519315 V 22.580561 c 0,-3.436085 -1.456036,-5.180129 -4.364109,-5.180129 -3.21608,0 -4.828119,2.068052 -4.828119,6.164154 v 8.932221 h -6.656166 v -8.936221 c 0,-4.096102 -1.61204,-6.164154 -4.82812,-6.164154 -2.908073,0 -4.364108,1.744044 -4.364108,5.184129 V 38.896967 H 12.786526 V 22.08855 c 0,-3.436086 0.880022,-6.164154 2.640065,-8.184205 1.824046,-2.02005 4.208105,-3.056076 7.172179,-3.056076 3.424085,0 6.01615,1.312034 7.732192,3.932098 l 1.668042,2.78007 1.668041,-2.78007 c 1.716043,-2.620064 4.308107,-3.932098 7.736193,-3.932098 2.960073,0 5.344133,1.036026 7.164178,3.056076 1.768043,2.020051 2.644065,4.748119 2.644065,8.184205 z"
     id="path1"
     style="stroke-width:4.0001" />
</svg>
