<?xml version="1.0" encoding="UTF-8" standalone="no"?>
<!-- Created with Inkscape (http://www.inkscape.org/) -->

<svg
   width="128px"
   height="128px"
   viewBox="0 0 128 128"
   version="1.1"
   id="svg1"
   sodipodi:docname="vt.svg"
   inkscape:version="1.3.2 (091e20e, 2023-11-25)"
   xmlns:inkscape="http://www.inkscape.org/namespaces/inkscape"
   xmlns:sodipodi="http://sodipodi.sourceforge.net/DTD/sodipodi-0.dtd"
   xmlns="http://www.w3.org/2000/svg"
   xmlns:svg="http://www.w3.org/2000/svg">
  <g
     id="icon"
     transform="matrix(3.7795279,0,0,3.7795279,-2.0000069,-4.1785569e-6)">
    <path
       d="m 14.098015,16.346798 c 0.03256,-0.01378 0.03256,-0.01378 0.03256,-0.01378 0.0121,-0.562314 0.07658,-0.98758 0.232365,-1.371871 0.05237,0.137049 0.15007,0.09572 0.104741,0.274096 -0.130266,0.05509 -0.110462,0.205919 -0.136317,0.336254 0.357571,-0.549235 0.473754,-1.235171 0.635594,-1.900618 -0.05875,-0.05475 -0.07855,-0.205574 -0.137307,-0.260324 0.188358,-0.398065 0.155129,-0.782008 0.415332,-1.091062 -0.01915,0.246895 0.0527,0.335907 -0.05105,0.658388 0.194739,-0.480364 0.519412,-1.214684 0.336114,-1.694353 0.10408,-0.123624 0.195068,-0.281505 0.220924,-0.411839 -0.124548,-0.424918 0.233356,-0.775295 0.187036,-1.1935008 0.0846,-0.07558 0.07823,0.0067 0.130265,-0.0551 0.01276,-0.1645982 -0.03289,-0.1850839 0.01915,-0.2468956 0.03256,-0.013773 0.02619,0.068527 0.05875,0.054754 0.122892,-0.5693756 0.343816,-0.9812158 0.551646,-1.4273167 -0.0071,-0.3154201 0.01848,-0.6446134 0.155131,-0.7820097 -0.163827,-0.5277034 0.500269,-0.9677879 0.173944,-1.2277624 -0.0977,0.041322 0.07855,0.2055715 -0.006,0.2811573 -0.03256,0.013773 -0.01947,0.048031 -0.0846,0.075581 -0.06547,-0.1713107 0.01915,-0.2468955 0.02552,-0.3291932 -0.04566,-0.020486 -0.110792,0.00707 -0.09132,-0.040977 0.110133,-0.404779 -0.03993,-0.5005041 -0.229288,-0.699014 0.15612,-0.1854324 0.116513,-0.4870768 0.0121,-0.5623147 0.02585,-0.1303363 0.0779,-0.1921452 0.08427,-0.274444 -0.03256,0.013773 -0.0977,0.041322 -0.07823,-0.00671 0.04532,-0.178371 0.227634,-0.2952794 0.207831,-0.4461021 -0.06514,0.027551 -0.143357,0.020839 -0.123885,-0.027205 0.02552,-0.3291934 0.122562,-0.768234 -0.08626,-0.9187093 -0.175595,0.2334683 -0.442507,0.4259617 -0.578825,0.7622162 0.0977,-0.041322 0.01309,0.034258 0.05237,0.137048 -0.292439,0.5216869 -0.702379,0.9338741 -0.844747,1.5512859 -0.175924,0.034612 -0.169212,0.1511736 -0.286386,0.2405295 0.02619,0.068527 -0.01276,0.164598 0.02651,0.2673844 -0.449219,0.3094009 -0.258881,1.1044894 -0.740666,1.427665 0.05303,0.534766 -0.06986,1.1041417 -0.316972,1.4474573 0.02585,-0.130335 0.02552,-0.3291943 -0.03323,-0.3839434 -0.273293,0.2747912 -0.201119,0.5626615 -0.35691,0.9469521 0.201779,-0.1649476 0.207831,-0.4461009 0.357572,-0.5492343 -0.01243,0.3634551 -0.233687,0.576436 -0.278685,0.9536657 0.06514,-0.02755 0.117174,-0.08936 0.123886,0.02721 -0.04566,-0.02048 -0.0977,0.04133 -0.123886,-0.02721 -0.143358,0.02084 3.3e-4,0.1988588 -0.02552,0.3291938 -0.07823,-0.0066 -0.06514,0.02755 -0.117175,0.08935 -0.02519,0.528053 -0.35658,1.145813 -0.36197,1.824689 -0.11079,0.0071 -0.07151,0.109849 -0.136645,0.137399 -0.07723,0.589863 -0.55198,1.228458 -0.375063,1.790425 0.168883,-0.350029 0.194078,-0.878082 0.513031,-1.132386 -0.109802,0.603638 -0.278355,1.152527 -0.446907,1.701414 -0.0063,0.08231 3.3e-4,0.198859 0.03961,0.301645 -0.604679,0.892552 -0.732963,2.140803 -0.913618,3.252004 -0.01948,0.04802 0.01309,0.03426 0.0067,0.116561 0.10408,-0.123625 0.136978,0.06146 0.07184,0.08902 -0.04566,-0.02048 -0.05875,-0.05475 -0.07184,-0.08902 -0.136645,0.137399 0.09803,0.157537 0.104743,0.274096 -0.05842,0.144109 -0.07118,0.308706 -0.14908,0.500853 -0.227965,0.09642 -0.163492,-0.328848 -0.300471,-0.39031 -0.02552,0.329193 0.235999,0.815575 -0.05006,1.254964 -0.123886,-0.0272 -0.0846,0.07558 -0.260531,0.110193 0.03289,0.185087 -0.02552,0.329196 -0.149079,0.500853 0.110789,-0.0071 0.05908,0.253608 -0.07756,0.391004 -0.04566,-0.02048 -0.09164,-0.239835 -0.0396,-0.301645 -0.07823,-0.0066 -0.18902,3.44e-4 -0.228297,-0.102433 0.14303,-0.219693 -0.196059,-0.315072 -0.02046,-0.54854 0.110791,-0.0071 3.3e-4,0.19886 0.111123,0.191799 0.03862,-0.294933 -0.06612,-0.56903 0.102754,-0.919059 -0.09132,-0.04098 -6.61e-4,-0.397717 -0.130927,-0.34262 0.0067,0.116562 0.05237,0.137049 0.05908,0.25361 -0.331716,0.418901 -0.330724,1.015477 -0.232033,1.570731 0.0977,-0.04133 0.162831,-0.06887 0.215202,0.06817 -0.168552,0.548887 0.02784,1.062818 -0.284075,1.632542 -0.215203,-0.06818 -0.111782,-0.589517 -0.157773,-0.808862 -0.176255,-0.16425 0.01211,-0.562317 -0.07955,-0.80215 -0.02585,0.130336 -0.045,0.37723 -0.168553,0.548888 0.123886,0.0272 0.196059,0.315072 0.118164,0.507218 -0.02619,-0.06853 -0.110791,0.0071 -0.136978,-0.06146 0.0063,-0.08231 0.07151,-0.10985 0.0648,-0.226407 -0.2665853,0.391351 -0.2394083,1.056452 -0.4472403,1.502553 -0.1567812,-0.212285 -0.144349,-0.575741 0.10342,-0.521339 0.01914,-0.246895 -0.1369772,-0.06146 -0.1567812,-0.212285 0.084608,-0.07558 0.1107912,-0.0071 0.1759242,-0.03462 -0.104741,-0.274094 -0.111453,-0.390655 -0.09902,-0.754111 -0.2796753,0.35709 -0.1547996,0.980867 -0.4801342,1.317469 -0.019475,0.04803 0.026186,0.06853 0.019804,0.150824 -0.5509878,1.825034 -0.9713793,3.793829 -1.7375699,5.550689 -0.1369776,-0.06146 0.019143,-0.246897 -0.1111222,-0.191798 -0.090987,0.157883 -0.1101313,0.404779 -0.051049,0.658387 -0.1107909,0.0071 -0.084608,0.07558 -0.2212538,0.21298 0.064802,-0.226406 -0.013091,-0.03426 -0.084937,-0.123273 -3.301e-4,-0.19886 -0.020465,-0.548541 -0.1443492,-0.57574 0.045657,0.02048 -0.019475,0.04802 -0.038946,0.09608 -0.019804,-0.150822 -0.084936,-0.123274 -0.04599,-0.219346 0.065133,-0.02755 0.0977,-0.04133 0.130266,-0.0551 -0.1051397,-0.472949 -0.1712643,-1.041977 -0.022185,-1.542828 -0.1175039,-0.1095 -0.013753,-0.431981 -0.1702046,-0.445409 0.0977,-0.04133 0.1037507,-0.322479 0.025525,-0.329191 0.013091,0.03426 -0.032566,0.01378 0,0 -0.019804,-0.150824 -0.039939,-0.500505 -0.1309262,-0.342622 0.065133,-0.02755 0.058753,0.05475 -0.00638,0.08231 -0.019475,0.04803 -0.038946,0.09608 -0.1040793,0.123625 0.038946,-0.09608 0.058422,-0.144111 0.1040793,-0.123625 -0.1829669,-0.280809 -0.04665,-0.617065 -0.255472,-0.767539 -0.05237,-0.13705 0.1040793,-0.123625 0.064802,-0.226409 -0.248394,-0.45211 0.037663,-0.891499 -0.1782008,-1.357394 0.2403977,-0.459875 0.1685532,-0.548887 0.096047,-1.035617 -3.301e-4,-0.198859 -0.013753,-0.431979 0.031575,-0.610352 -0.072505,-0.486727 -0.119155,-1.103792 -0.1590936,-1.604297 -0.026186,-0.06853 -0.019804,-0.150823 -0.09803,-0.157537 0.090987,-0.157881 0.1292752,-0.651673 -0.04665,-0.617064 0.038946,-0.09608 0.1040793,-0.123624 0.143028,-0.219693 -0.1832972,-0.47967 -0.00836,-1.110856 -0.2047526,-1.624787 0.05171,-0.260669 0.051379,-0.459528 0.083615,-0.672161 -0.1906693,-0.993947 -0.055673,-2.125636 -0.024428,-2.934847 -0.078224,-0.0066 -0.1369773,-0.06146 -0.143689,-0.178024 0.025855,-0.130336 0.149741,-0.103129 0.1104619,-0.205919 -0.084937,-0.123275 -0.2021102,-0.03391 -0.1373078,-0.260323 -0.1302659,0.05509 -0.189019,3.43e-4 -0.280336,-0.04063 -0.5146839,0.138087 -1.009891,0.228145 -1.4268742,0.324914 -0.1497411,0.103128 -0.1755949,0.233468 -0.2665828,0.391351 -0.071844,-0.08901 -0.1759238,0.03462 -0.254152,0.02789 0.00638,-0.0823 0.1494097,-0.301992 0.038617,-0.294931 -0.032235,0.212634 -0.1101313,0.404779 -0.2205932,0.610699 -0.065133,0.02755 -0.039278,-0.102787 -0.1044114,-0.07524 3.302e-4,0.19886 -0.1953988,0.08264 -0.3058603,0.288568 -0.00638,0.08231 0.019804,0.150821 0.026515,0.267383 -0.00638,0.08231 -0.090987,0.157883 -0.1625022,0.26773 0.09902,0.754112 0.087911,1.913004 0.1217979,2.694665 0.1255364,1.021495 0.28969,1.748061 0.3504236,2.995962 -0.019475,0.04803 0.065132,-0.02755 0.058753,0.05476 -0.1151915,1.282512 0.4148962,2.570696 0.2872729,4.216665 0.1107907,-0.0071 0.1305963,0.143761 0.1698743,0.246547 -0.1168429,0.288219 0.033557,0.582803 0.1057323,0.870674 0.040599,0.898222 0.3088335,1.501164 0.1996929,2.502519 0.2282959,0.102433 0.2877084,0.554907 0.2296172,0.897876 0.3138936,0.623428 0.3219259,1.535425 0.4991726,2.296252 -0.052042,0.0618 -0.1104617,0.20592 -0.1037507,0.322479 0.1305965,0.143762 0.2480996,0.253262 0.3592221,0.44506 -0.038946,0.09608 -0.025525,0.329195 0.065793,0.37017 -0.084275,0.274443 0.1309266,0.342618 0.2484305,0.452119 -0.013091,-0.03425 0.038946,-0.09608 0.065133,-0.02755 0,0 -0.032566,0.01377 -0.065133,0.02755 0.2615234,0.486382 0.7694942,0.23173 1.2519406,0.306274 0,0 -0.019475,0.04802 0.00671,0.116559 0.4952085,-0.09006 1.0424578,-0.241919 1.5631914,-0.661166 -0.026186,-0.06853 -0.1436895,-0.178023 -3.302e-4,-0.19886 0.084608,-0.07558 0.013423,0.233122 0.1305968,0.143762 -0.071843,-0.08901 -0.059082,-0.25361 0.071183,-0.308707 0.045329,-0.178371 -0.065463,-0.17131 -0.013422,-0.23312 0.1238861,0.02721 0.1692122,-0.151173 0.2736232,-0.07593 0.025855,-0.130335 -0.084937,-0.123274 -3.302e-4,-0.198861 0.071512,-0.109848 0.1500705,0.09573 0.1433573,-0.02084 -0.078224,-0.0066 -0.045989,-0.219346 -3.301e-4,-0.198859 0.013091,0.03425 0.026186,0.06853 0.05237,0.137048 0.077895,-0.192145 0.1107908,-0.0071 0.214874,-0.130679 -0.091321,-0.04098 -0.026186,-0.06853 0.052042,-0.0618 -0.00671,-0.116561 -0.065463,-0.17131 -0.039608,-0.301647 0.1171746,-0.08935 0.019804,0.150823 0.1175043,0.109501 0.090987,-0.157884 0.018813,-0.445754 0.1685528,-0.548888 -0.00638,0.08231 0.3390876,0.09538 0.2410566,-0.06217 -0.05204,0.0618 -0.1171744,0.08935 -0.06513,0.02755 0.03257,-0.01378 0.06513,-0.02755 0.06513,-0.02755 -0.0198,-0.150822 0.169544,0.04769 0.188688,-0.199206 -0.08461,0.07558 -0.07184,-0.08901 -0.08494,-0.123274 0.05204,-0.0618 0.03895,-0.09608 0.07151,-0.109852 0.04566,0.02048 0.07823,0.0066 0.08494,0.123275 0.03256,-0.01378 0.03256,-0.01378 0.03256,-0.01378 0.05776,-0.541826 0.474084,-1.036311 0.414671,-1.48878 0.0977,-0.04133 0.104079,-0.123624 0.169212,-0.151174 0.20717,-0.843818 0.577504,-1.557651 0.628222,-2.414897 0.292108,-0.720546 0.349538,-1.461232 0.641646,-2.181776 0.01882,-0.445755 0.142036,-0.816272 0.232695,-1.173015 -0.117834,-0.308357 0.226974,-0.692997 0.102754,-0.919056 0.318624,-0.453164 0.271974,-1.070227 0.492898,-1.482067 -0.02619,-0.06853 -0.03928,-0.102786 -0.05237,-0.137048 0.15612,-0.185433 0.03828,-0.493792 0.220592,-0.610698 -0.02046,-0.548543 0.519412,-1.214685 0.335784,-1.893213 0.325004,-0.535461 0.330394,-1.214335 0.616452,-1.653723 0.05875,0.05475 -0.0779,0.192145 0.04599,0.219346 0.103752,-0.32248 -0.151061,-0.692303 0.161511,-0.864308 0.01309,0.03426 -0.0063,0.0823 -0.01276,0.164597 z m 2.66802,-10.4416013 c -0.03928,-0.1027871 -0.01981,-0.150821 -3.28e-4,-0.1988599 0.117175,-0.089356 0.111119,0.1917986 3.28e-4,0.1988599 z m -0.07086,0.5075652 c -0.01309,-0.034258 -0.02618,-0.068527 -0.02618,-0.068527 0.03256,-0.013773 0.06513,-0.027551 0.06513,-0.027551 0,0 0.01309,0.034258 0.02619,0.068527 0,0 -0.03256,0.013773 -0.06513,0.02755 z M 15.654369,7.648976 c -0.05237,-0.137049 -3.28e-4,-0.1988608 0.05171,-0.2606698 0.06514,-0.02755 0.09164,0.2398344 -0.05171,0.2606698 z m -0.09737,0.2401813 c 0.01947,-0.048031 0.03256,-0.013773 0,0 z m -0.174933,0.6311863 c -0.06547,-0.1713097 0.05809,-0.3429678 0.07086,-0.5075643 0.104414,0.075236 0.124549,0.4249171 -0.07086,0.5075643 z m -0.474743,0.6385953 c 0.01276,-0.1645991 0.143027,-0.2196948 0.05809,-0.3429685 0.130266,-0.055097 0.202111,0.033914 0.189348,0.1985113 -0.09132,-0.040977 -0.11079,0.00707 -0.247439,0.1444531 z M 16.19722,8.7725627 c -0.01309,-0.034258 0.0063,-0.0823 0.0063,-0.0823 0.03256,-0.013773 0.06514,-0.027551 0.06514,-0.027551 0,0 -0.01947,0.048031 -0.0063,0.082299 0,0 -0.03256,0.013774 -0.06513,0.027551 z m -1.230816,0.639985 c -0.0977,0.041322 -0.123885,-0.027205 -0.104409,-0.075238 0.03256,-0.013774 0.07822,0.00671 0.104409,0.075238 z M 3.8417638,14.157626 c -0.019804,-0.150822 0.00671,0.116558 0,0 z M 5.059815,13.682234 c 0.019475,-0.04803 0.00638,-0.08231 0.00638,-0.08231 0.032567,-0.01378 0.065132,-0.02755 0.065132,-0.02755 0,0 0.013091,0.03425 -0.00638,0.0823 0,0 -0.032567,0.01378 -0.065132,0.02755 z m 9.666525,-3.610958 c -0.05908,-0.2536078 0.01243,-0.3634558 0.05776,-0.5418268 0.05204,-0.061808 0.0977,-0.041322 0.110791,-0.0071 -0.156121,0.185432 0.06579,0.370169 -0.168553,0.5488878 z m -0.331716,0.418902 c 0.03256,-0.01378 0.01948,-0.04803 0.01948,-0.04803 0.03256,-0.01378 0.06514,-0.02755 0.06514,-0.02755 0,0 0.01309,0.03426 0.02619,0.06853 -0.04566,-0.02048 -0.03256,0.01378 -0.01948,0.04803 0,0 -0.03256,0.01378 -0.06514,0.02755 -0.01309,-0.03425 -0.02619,-0.06853 -0.02619,-0.06853 z m -0.624813,0.542868 c 0.02585,-0.130335 0.0648,-0.226408 0.162502,-0.26773 0.03928,0.102786 -0.0779,0.192145 -0.162502,0.26773 z m 0.003,1.789731 c 0.168223,-0.747747 0.343156,-1.378934 0.504998,-2.044382 0.234677,0.02014 -0.168553,0.548887 0.0014,0.795436 -0.03256,0.01378 -0.05204,0.0618 -0.136646,0.137399 0.09803,0.157537 0.04632,0.418206 -0.1098,0.603639 0.0406,0.89822 -0.50599,1.447805 -0.543617,2.339312 -0.116843,0.288219 -0.259871,0.507913 -0.246118,0.939893 -0.280006,0.158227 -0.1098,0.603637 -0.409281,0.809904 0.07251,0.48673 -0.31158,0.768581 -0.349868,1.262373 -0.04566,-0.02048 -0.06547,-0.17131 -0.111122,-0.191799 0.149741,-0.103128 0.129937,-0.253954 0.214543,-0.329541 -0.03928,-0.102786 -0.05908,-0.253608 -0.08527,-0.322131 0.11046,-0.205922 0.149077,-0.500852 0.16184,-0.66545 0.07823,0.0066 0.07855,0.205573 0.08527,0.322134 0.116842,-0.288219 -0.02047,-0.54854 0.109469,-0.802496 0.05204,-0.0618 0.07823,0.0066 0.143358,-0.02084 0.02585,-0.130334 -0.02652,-0.267383 -0.0527,-0.335905 0.116512,-0.487079 0.200459,-0.960381 0.388816,-1.358446 0.04532,-0.178372 -0.143357,0.02084 -0.117504,-0.1095 -3.31e-4,-0.198859 0.130266,-0.05509 0.175923,-0.03462 0.09099,-0.157883 -0.06547,-0.171311 -0.09164,-0.239832 0.208161,-0.247245 0.266252,-0.590213 0.363622,-0.830395 0.117174,-0.08935 0.05875,0.05476 0.10441,0.07524 z m 1.951016,-2.616191 c -0.01309,-0.03425 0.03256,-0.01378 0,0 z m -1.978853,1.553372 c -0.136978,-0.06146 -0.03961,-0.301646 0.01243,-0.363456 0.06514,-0.02755 0.05237,0.137048 0.04599,0.219346 -0.07823,-0.0066 -0.0977,0.04133 -0.05842,0.14411 z m 1.649451,0.257543 c -0.228298,-0.102433 0.07756,-0.391005 0.04467,-0.57609 0.0977,-0.04133 0.06547,0.17131 0.07218,0.287871 -0.156453,-0.01344 -0.04532,0.17837 -0.116842,0.288219 z m -1.680694,0.551672 c 0.01276,-0.164596 0.07184,0.08902 0,0 z M 14.57355,12.2453 c 0.01276,-0.164598 0.03928,0.102786 0,0 z m 0.690939,0.02616 c -0.03928,-0.102786 -0.0067,-0.116561 0.01276,-0.164598 0.0977,-0.04133 0.117505,0.1095 -0.01276,0.164598 z m -0.564741,1.393055 c 0.20849,-0.04839 -0.0779,0.192144 0,0 z m -1.96609,1.388774 c 0.01309,0.03425 -0.03256,0.01377 -0.05204,0.0618 -0.01309,-0.03425 0.01948,-0.04803 0.05204,-0.0618 z m -0.328083,2.606348 c 0.01309,0.03426 -0.03256,0.01378 -0.05204,0.0618 -0.01309,-0.03425 0.01948,-0.04803 0.05204,-0.0618 z m -0.220262,0.809558 c 0.143028,-0.219694 0.07086,-0.507566 0.161841,-0.665448 0.124214,0.22606 -0.04467,0.57609 0.0013,0.795434 -0.07823,-0.0066 -0.104412,-0.07524 -0.163162,-0.129986 z m -1.412791,0.955752 c -0.07823,-0.0066 -0.04599,-0.219346 0.04532,-0.178371 0.02619,0.06853 -0.0846,0.07558 -0.04532,0.178371 z m 1.037067,0.436954 c 0.05171,-0.260668 0.05809,-0.342967 0.15546,-0.583149 0.06513,-0.02755 0.07823,0.0066 0.09132,0.04098 -0.04532,0.17837 -0.01882,0.445754 -0.246778,0.542174 z M 5.3809,22.541185 c -0.013091,-0.03426 0.032566,-0.01378 0,0 z m 6.279622,-2.17843 c -0.221586,0.01411 -0.03323,-0.383944 -0.111453,-0.390657 0.0846,-0.07558 0.06513,-0.02755 0.11079,-0.0071 -0.03223,0.212637 -0.0779,0.19215 6.63e-4,0.397721 z m -0.280335,-0.04062 c -0.162833,0.06887 -0.09132,-0.04098 -0.09803,-0.157536 0.03256,-0.01378 0.06514,-0.02755 0.0977,-0.04133 -0.01948,0.04803 0.0068,0.11656 3.31e-4,0.198858 z m -5.0733689,2.464209 c -0.013091,-0.03425 -0.026186,-0.06853 -0.039278,-0.102786 0.052042,-0.0618 0.065134,-0.02755 0.091321,0.04098 -0.045657,-0.02049 -0.032566,0.01378 -0.052042,0.0618 z m 5.2049169,-1.723876 c 0.0779,-0.192144 0.05138,-0.459528 0.06414,-0.624126 0.03256,-0.01378 0.07823,0.0066 0.143356,-0.02084 -0.0648,0.226408 0.05303,0.534766 -0.207501,0.644961 z m 1.412791,-0.955751 c 0.01309,0.03426 -0.03256,0.01378 -0.05204,0.0618 -0.01309,-0.03426 0.01948,-0.04803 0.05204,-0.0618 z m -2.174913,1.238299 c 0.02585,-0.130335 0.006,-0.281158 0.116843,-0.288218 -0.0063,0.0823 3.3e-4,0.19886 -0.116843,0.288218 z m -6.4535539,3.406191 c -0.00671,-0.11656 -0.059082,-0.253608 0.012432,-0.363456 0.078224,0.0066 0.1309266,0.342621 -0.012432,0.363456 z m 5.6272896,-2.49952 c 0.03257,-0.01378 0.07822,0.0066 0.1238873,0.0272 -0.2014503,0.363804 -0.0121,0.562314 -0.1024303,1.117915 0.06513,-0.02755 0.1171763,-0.08935 0.1238863,0.0272 -0.1433573,0.02084 -0.05171,0.26067 -0.1232243,0.370518 -0.104411,-0.07524 -0.06546,-0.171311 -0.007,-0.31542 -0.104411,-0.07524 -0.07151,0.109851 -0.214874,0.130679 -0.01276,0.164597 -0.064802,0.226408 0.06579,0.37017 -0.07822,-0.0066 -0.1302658,0.0551 -0.1366456,0.137399 0.078224,0.0066 0.1826366,0.08196 0.3065216,0.109153 -0.0067,-0.116562 0.01915,-0.246897 -0.05908,-0.25361 0.0977,-0.04133 0.1040803,-0.123624 0.1823083,-0.116904 0.05138,-0.45953 0.08329,-0.871021 0.180655,-1.111203 -0.06514,0.02755 -0.143359,0.02084 -0.169545,-0.04769 0.05842,-0.144109 0.07151,-0.10985 0.175595,-0.233468 -0.0063,0.08231 0.0068,0.116562 0.08494,0.123275 -0.02652,-0.267384 -0.03961,-0.301646 -0.124546,-0.42492 0.02619,0.06853 0.0198,0.150823 -0.0779,0.192145 -0.04599,-0.219346 0.03191,-0.411491 -0.111452,-0.390656 0.03928,0.102786 -0.1040803,0.123624 -0.1168443,0.288219 z m 1.4460173,-0.571812 c 0.02585,-0.130334 0.006,-0.281158 0.116843,-0.288217 0.0068,0.11656 -0.03224,0.212631 -0.116843,0.288217 z m -0.0779,0.192147 c 0.01948,-0.04802 0.03256,-0.01378 0,0 z m -7.0407373,3.057556 c -0.013091,-0.03425 0.032566,-0.01378 0,0 z m 0.059082,0.253608 c -0.019804,-0.150823 0.019143,-0.246896 0.025525,-0.329194 0.032566,-0.01377 0.072175,0.287871 -0.025525,0.329194 z m -0.09737,0.240182 c 0.019475,-0.04803 0.038946,-0.09608 0.1171746,-0.08935 0.1242152,0.226061 0.039608,0.301647 0.079217,0.603291 -0.045657,-0.02048 -0.039278,-0.102786 -0.1564525,-0.01344 0.071512,-0.109851 0.1688833,-0.35003 -0.026515,-0.267383 -0.00671,-0.116561 0.012762,-0.164599 -0.013423,-0.233122 z m 5.615188,-1.937204 c -0.07822,-0.0066 -0.104741,-0.274096 0.01914,-0.246896 0.07184,0.08901 0.0067,0.116561 -0.01914,0.246896 z M 4.1875766,26.15028 c -0.013091,-0.03425 0.032566,-0.01378 0,0 z m 7.8824094,-2.537952 c 0.156121,-0.185431 -0.02585,0.130335 0,0 z m -2.3444563,1.190611 c 0.01948,-0.04803 0.0064,-0.0823 -0.0067,-0.116561 0.03257,-0.01378 0.06513,-0.02755 0.0977,-0.04133 -0.03257,0.01378 0.0067,0.116562 -0.09099,0.157884 z m 1.9022793,-0.565791 c 0.03895,-0.09608 0.123555,-0.171656 0.188687,-0.199204 -0.0063,0.0823 -0.07151,0.109849 -0.188687,0.199204 z m 0.221585,-0.01411 c -0.01309,-0.03426 0.03256,-0.01378 0,0 z m -7.1686948,4.504664 c -0.00737,-0.514279 -0.092639,-0.836411 -0.1456709,-1.371179 0.1369775,0.06146 0.1823075,-0.116903 0.3061898,-0.08971 0.00671,0.116561 -0.019144,0.246894 -0.1494098,0.301991 0.2219149,0.184739 -0.031575,0.610353 0.1319177,0.939198 -0.1433573,0.02084 0.032897,0.185084 -0.1430284,0.219695 z m 7.1626428,-4.223513 c -0.01309,-0.03425 0.03256,-0.01378 0,0 z m -0.520734,0.419249 c 0.01276,-0.164599 0.03928,0.102786 0,0 z m -4.578451,2.175299 c -0.013091,-0.03425 0.032566,-0.01378 0,0 z m 4.351807,-1.283443 c 0.01948,-0.04803 0.03256,-0.01378 0,0 z m -0.01276,0.164596 c -0.01309,-0.03426 -0.02619,-0.06853 -0.02619,-0.06853 0.03256,-0.01378 0.06513,-0.02755 0.06513,-0.02755 0,0 0.01309,0.03425 0.02619,0.06853 0,0 -0.03256,0.01378 -0.06513,0.02755 z M 4.73307,28.864741 c 0.012762,-0.164596 0.071843,0.08902 0,0 z m 6.637183,-2.727659 c 0.04532,-0.178372 0.07184,0.08902 0,0 z m -6.589871,3.742446 c 0.025855,-0.130335 0.090987,-0.157884 0.032236,-0.212635 0.084609,-0.07558 0.1238862,0.0272 0.084936,0.123275 -0.045657,-0.02048 -0.052042,0.0618 -0.1171746,0.08935 z m 1.3610827,-0.695084 c -0.013091,-0.03425 0.032566,-0.01378 0,0 z m 1.1602916,0.06644 c 0.045329,-0.178371 0.071844,0.08901 0,0 z m 2.8275627,-0.718349 c -0.01309,-0.03426 -0.02619,-0.06853 0.02585,-0.130334 0.07151,-0.109852 0.08494,0.123271 -0.02585,0.130334 z m -4.9232584,2.55994 c -0.078224,-0.0066 -0.05237,-0.137049 -0.078555,-0.205573 0.052042,-0.0618 0.078224,0.0066 0.071844,0.08902 0.032566,-0.01378 0.084609,-0.07558 0.084609,-0.07558 0.078224,0.0066 -0.071512,0.10985 -0.077895,0.192147 z m -0.018813,0.445754 c -0.013092,-0.03426 0.032566,-0.01378 0,0 z m 0.5929076,-0.131384 c -0.065133,0.02755 -0.091321,-0.04098 -0.1044114,-0.07524 0.032566,-0.01377 0.078224,0.0066 0.1044114,0.07524 z m -0.5731053,0.282197 c 0.019474,-0.04803 0.00638,-0.08231 0.00638,-0.08231 0.032566,-0.01378 0.065133,-0.02755 0.065133,-0.02755 0,0 0.013091,0.03426 -0.00638,0.0823 0,0 -0.032566,0.01378 -0.065133,0.02755 z m 0.2481,0.253262 c -0.013091,-0.03426 0.032566,-0.01378 0,0 z m 0.2084902,-0.04839 c -0.013091,-0.03426 0.032566,-0.01378 0,0 z m -0.3055303,0.487425 c -0.013091,-0.03426 0.032566,-0.01378 0,0 z m 0.254152,-0.02789 c -0.013092,-0.03426 -0.026186,-0.06853 -0.026186,-0.06853 0.052042,-0.0618 0.078225,0.0066 0.071844,0.08901 -0.013091,-0.03426 -0.013091,-0.03426 -0.045658,-0.02048 z m 4.2077879,-1.660324 c -0.01309,-0.03425 -0.02619,-0.06853 -0.02619,-0.06853 0.03257,-0.01378 0.06513,-0.02755 0.06513,-0.02755 0,0 0.01309,0.03426 0.02619,0.06853 0,0 -0.03256,0.01377 -0.06513,0.02755 z m 0.2605313,-0.110196 c 0.01276,-0.164596 0.07184,0.08902 0,0 z M 5.8993092,32.51064 c 0.00638,-0.0823 0.038946,-0.09608 0.012762,-0.164598 0.032566,-0.01377 0.065133,-0.02755 0.0977,-0.04133 0.013091,0.03425 -0.012762,0.164597 -0.1104622,0.20592 z m -0.5341551,0.18613 c -0.013092,-0.03425 -0.026186,-0.06853 -0.026186,-0.06853 0.032566,-0.01378 0.065133,-0.02755 0.065133,-0.02755 0,0 0.013091,0.03426 0.026186,0.06853 0,0 -0.032566,0.01378 -0.065133,0.02755 z m 4.3575286,-1.763457 c 0.04533,-0.178372 0.07184,0.08902 0,0 z m -0.1823073,0.116903 c 0.077895,-0.192146 0.1369775,0.06146 0,0 z m -0.1171745,0.08935 c 0.1628325,-0.06887 3.301e-4,0.198859 0,0 z m 0.2998098,-0.0075 c -0.0067,-0.116561 0.07151,-0.109851 0.104079,-0.123625 0.01309,0.03425 -0.03895,0.09608 -0.104079,0.123625 z m -4.2987756,1.81826 c 0.019474,-0.04803 0.032566,-0.01378 0,0 z m 0.6775162,-0.206959 c -0.025855,0.130335 -0.1302658,0.0551 -0.1564525,-0.01344 0.065133,-0.02755 0.1107908,-0.0071 0.1564525,0.01344 z m -0.3058608,0.288591 c -0.078224,-0.0066 -0.091319,-0.04098 -0.1175039,-0.1095 0.0977,-0.04133 0.1628325,-0.06887 0.1175039,0.1095 z m -0.3189532,0.254303 c -0.013091,-0.03426 -0.026186,-0.06853 -0.026186,-0.06853 0.032566,-0.01377 0.065133,-0.02755 0.065133,-0.02755 0,0 0.013092,0.03425 0.026186,0.06853 0,0 -0.032566,0.01378 -0.065133,0.02755 z m 0.2870475,0.157188 c -0.078224,-0.0066 -0.117504,-0.1095 -0.09803,-0.157537 0.1497409,-0.103129 0.1175042,0.109501 0.09803,0.157537 z m 0.1823075,-0.116905 c -0.039278,-0.102786 -0.1433573,0.02084 -0.1500704,-0.09573 0.0977,-0.04133 0.189019,-3.44e-4 0.2672433,0.0063 -0.077895,0.192146 0.039278,0.102786 0.072175,0.28787 -0.065133,0.02755 -0.038946,0.09608 -0.1366458,0.1374 -0.039278,-0.102786 -0.1373072,-0.260321 -0.0527,-0.335907 z m 3.1200025,-1.240033 c -0.065132,0.02755 0.012762,-0.164598 -0.032897,-0.185084 0.065133,-0.02755 0.1369774,0.06146 0.032897,0.185084 z m -0.1564526,-0.01344 c -0.013091,-0.03426 -0.026186,-0.06853 -0.026186,-0.06853 0.032566,-0.01377 0.065133,-0.02755 0.065133,-0.02755 0,0 0.013091,0.03426 0.026186,0.06853 0,0 -0.032566,0.01378 -0.065133,0.02755 z m -2.4750526,1.046852 c 0.012762,-0.164597 0.071843,0.08901 0,0 z m 2.7355845,-1.157044 c 0.012762,-0.164596 0.071843,0.08902 0,0 z m -0.4945482,0.487774 c 0.077895,-0.192147 0.1044115,0.07524 0,0 z M 6.6049941,33.56533 c 0.045328,-0.178371 0.071843,0.08902 0,0 z m 1.5306247,-0.647393 c 0.052042,-0.0618 0.032566,-0.01378 0,0 z m -0.012762,0.164597 c -0.013091,-0.03426 0.032566,-0.01378 0,0 z m -0.2474409,0.144453 c 0.032566,-0.01378 0.019475,-0.04803 0.019475,-0.04803 0.052042,-0.0618 0.084936,0.123272 -0.025855,0.130333 -0.013092,-0.03426 0.00638,-0.0823 0.00638,-0.0823 z m 0.2934288,0.07489 c -0.097699,0.04133 -3.301e-4,-0.19886 -0.1175043,-0.1095 0.045329,-0.178371 0.1890191,-3.43e-4 0.1175043,0.1095 z m 0.012762,-0.164599 c 0.032566,-0.01378 0.052042,-0.0618 0.052042,-0.0618 0.065132,-0.02755 0.045657,0.02049 0.039278,0.102786 0,0 -0.032566,0.01378 -0.065133,0.02755 -0.013091,-0.03426 -0.026186,-0.06853 -0.026186,-0.06853 z m -0.781265,0.529467 c -0.019804,-0.150823 0.00671,0.116559 0,0 z m 0.2867185,-0.04167 c -0.013091,-0.03425 0.038946,-0.09608 0.038946,-0.09608 0.032566,-0.01378 0.065133,-0.02755 0.065133,-0.02755 0,0 -0.052042,0.0618 -0.038946,0.09608 0,0 -0.032566,0.01377 -0.065133,0.02755 z m 0.1302661,-0.05509 c -0.013091,-0.03426 0.032566,-0.01378 0,0 z M 14.201315,7.9053645 c -0.208491,0.048387 -0.25349,0.4256137 -0.214212,0.5283999 0.0779,-0.1921452 0.181975,-0.315767 0.214212,-0.5283999 z M 3.9649892,13.787112 c -0.058422,0.144109 0.156121,-0.185432 0,0 z M 12.941898,10.94543 c 0.04532,-0.178371 0.110461,-0.205919 0.208162,-0.247241 -0.02013,-0.349682 0.292437,-0.521688 0.239735,-0.8575948 C 13.20782,10.15636 13.038937,10.506391 12.941898,10.94543 Z m 0.585205,-0.844514 c 0.01948,-0.04803 0.03256,-0.01378 0,0 z m -0.585205,0.844514 c -0.143358,0.02084 0.04599,0.219348 0.03928,0.102786 -0.04566,-0.02048 -0.02619,-0.06853 -0.03928,-0.102786 z m -0.09737,0.240181 c 0.03928,0.102786 0.01276,-0.164596 0,0 z m -0.298157,1.001703 c 0.0977,-0.04133 0.07151,-0.10985 0.136645,-0.137398 -0.09803,-0.157535 0.136317,-0.336254 -0.01376,-0.43198 -0.01276,0.164597 -0.09066,0.356742 -0.122893,0.569375 z m 0.370663,-0.514972 c -0.01309,-0.03425 0.03256,-0.01378 0,0 z m -0.370663,0.514972 c -0.117176,0.08935 -0.14941,0.301993 -0.14908,0.500853 0.09099,-0.157884 0.09066,-0.356742 0.14908,-0.500853 z m 3.334872,-1.37072 c 0.01309,0.03425 -0.03895,0.09608 -0.0779,0.192144 0.11079,-0.0071 0.175594,-0.233468 0.0779,-0.192144 z m -3.145857,1.370366 c -0.156449,-0.01343 -0.1625,0.267738 -0.136315,0.336263 0.02585,-0.130334 0.09737,-0.240182 0.136317,-0.336256 z m -0.220594,0.6107 c 0.01948,-0.04803 0.03256,-0.01378 0,0 z m -0.332044,0.220046 c -0.0779,0.192144 -0.142698,0.418553 -0.109802,0.603636 0.10408,-0.123624 0.162172,-0.466589 0.109802,-0.603636 z m -0.350199,1.063513 c -0.188687,0.199207 -0.194738,0.480364 -0.220262,0.809557 -0.156122,0.185432 -0.162173,0.46659 -0.20079,0.76152 -0.182308,0.116905 -0.325005,0.535461 -0.200789,0.761522 0.187697,-0.795782 0.55803,-1.509614 0.621841,-2.332599 z m 1.621945,-0.606414 c 0,0 -0.01948,0.04802 -0.0063,0.0823 0.03256,-0.01378 0.03256,-0.01378 0.07823,0.0066 -0.02619,-0.06853 -0.0198,-0.150823 -0.07184,-0.08902 z m -1.1066,0.866045 c 0,0 0.01309,0.03426 -0.0063,0.08231 0.03256,-0.01378 0.06513,-0.02755 0.06513,-0.02755 0.01948,-0.04803 0.0063,-0.0823 0.0063,-0.0823 0,0 -0.03256,0.01377 -0.06513,0.02755 z m -0.181976,0.315766 c 0.06514,-0.02755 0.04566,0.02048 0.05875,0.05475 0.10408,-0.123624 -0.06547,-0.171311 -0.05875,-0.05475 z m -0.442508,0.425963 c -0.07822,-0.0066 -0.07151,0.109849 -0.09099,0.157882 0.06514,-0.02755 0.0846,-0.07558 0.09099,-0.157882 z m 0.189018,-3.44e-4 c 0.104412,0.07524 0.110463,-0.205921 0,0 z m 0.202112,0.03391 c 0.01309,0.03425 0.0067,0.116561 3.3e-4,0.19886 0.0977,-0.04133 0.0779,-0.192144 0.09737,-0.240183 -0.03256,0.01378 -0.06514,0.02755 -0.0977,0.04133 z m 0.254152,-0.02789 c -0.07823,-0.0066 -0.07151,0.10985 -0.0648,0.226408 0.0977,-0.04133 0.04532,-0.178373 0.0648,-0.226408 z m -0.364612,0.23382 c -0.254151,0.02789 -0.05809,0.342967 -0.01882,0.445753 0.05842,-0.14411 -0.117835,-0.308359 0.01882,-0.445753 z m -0.34514,0.185774 c 0,0 0.01309,0.03426 0.02619,0.06853 0.03256,-0.01378 0.06513,-0.02755 0.06513,-0.02755 -0.01309,-0.03426 -0.02619,-0.06853 -0.02619,-0.06853 0,0 -0.03256,0.01378 -0.06513,0.02755 z m -0.214542,0.329542 c 0.03928,0.102786 0.01276,-0.164596 0,0 z m 0.306852,0.308011 c 0.01309,0.03426 0.03928,0.102786 0.08494,0.123274 0.03895,-0.09608 -3.31e-4,-0.198858 -0.08494,-0.123274 z m -0.449221,0.309402 c 0.07184,0.08902 0.0779,-0.192146 0,0 z m -0.227965,0.09642 c -0.331385,0.617758 -0.245125,1.536469 -0.700396,2.127027 0.06547,0.171309 6.6e-4,0.397718 -0.142367,0.617412 0.02684,0.466241 -0.109472,0.802497 -0.2847363,1.234823 0.0329,0.185086 0.007,0.31542 -0.175265,0.432329 0.143358,-0.02084 0.14369,0.178024 0.150401,0.294584 0.05842,-0.144109 0.1299363,-0.253958 0.02552,-0.329194 0.1497413,-0.103129 0.2343453,-0.178723 0.1494103,-0.301993 0.241056,-0.06217 0.116843,-0.288218 0.05809,-0.342967 0.06514,-0.02755 0.04566,0.02048 0.110791,-0.0071 -0.01343,-0.233121 0.123225,-0.370517 0.0057,-0.480017 0.30553,-0.487425 0.121903,-1.165952 0.46671,-1.55059 -9.92e-4,-0.596578 0.363622,-0.830393 0.232365,-1.371874 0.0846,-0.07558 0.208161,-0.247242 0.103752,-0.322479 z m 0.34547,0.01308 c -0.129936,0.253958 0.08592,0.719851 -0.142038,0.816271 0.117835,0.308359 -0.213882,0.72726 0.02113,0.946258 -0.05908,-0.253609 -0.02047,-0.54854 0.174934,-0.631186 -0.105071,-0.472955 0.181316,-0.713485 -0.05403,-1.131343 z m 1.25799,0.02512 c -0.01309,-0.03426 0.03256,-0.01378 0,0 z m 1.420494,-0.242615 c -0.06513,0.02755 -0.07151,0.109852 -0.03224,0.212634 0.130265,-0.05509 0.05842,-0.14411 0.03224,-0.212634 z m -3.106578,1.473158 c 0.01948,-0.04803 0.06514,-0.02755 0.05204,-0.0618 -0.03256,0.01378 -0.06514,0.02755 -0.05204,0.0618 z m 0.404221,0.06783 c 0.01948,-0.04802 0.03256,-0.01378 0,0 z m -0.442508,0.425961 c 0.02651,0.267384 0.0779,-0.192144 0,0 z m 0.664753,-0.04236 c 0.01948,-0.04802 0.03256,-0.01378 0,0 z M 11.1425,18.512272 c 0.03928,0.102786 0.01276,-0.164598 0,0 z m -0.332045,0.220056 c 0.01948,-0.04802 0.06513,-0.02755 0.05204,-0.0618 -0.03256,0.01378 -0.06514,0.02755 -0.05204,0.0618 z m 0.110791,-0.0071 c -0.01309,-0.03426 0.03256,-0.01378 0,0 z m 0.677516,-0.206958 c 0.05875,0.05475 6.61e-4,0.397717 0.176586,0.363109 -0.05237,-0.137049 -0.03323,-0.383944 -0.176586,-0.363109 z m -0.703371,0.337293 c -0.01948,0.04802 -0.0063,0.0823 0.0067,0.116561 0.07822,0.0066 0.0648,-0.226407 -0.0067,-0.116561 z m 0.175924,-0.03462 c -0.05842,0.144109 0.123555,-0.171658 0,0 z m -0.245457,1.33761 c 0.01948,-0.04803 0.07823,0.0066 0.06513,-0.02755 -0.01309,-0.03425 -0.09132,-0.04098 -0.06513,0.02755 z m -0.44284,0.227099 c 0,0 0.01309,0.03426 -0.01948,0.04803 0,0 -0.01947,0.04802 -0.0063,0.0823 0.110791,-0.0071 0.0779,-0.192144 0.02585,-0.130334 z m -0.05171,0.260671 c 0.01948,-0.04802 0.06514,-0.02755 0.05204,-0.0618 -0.03256,0.01378 -0.06513,0.02755 -0.05204,0.0618 z m 0.104743,0.274098 c 0.03928,0.102787 0.01276,-0.164597 0,0 z m 0.130264,-0.05509 c 0.01948,-0.04802 0.06514,-0.02755 0.05204,-0.0618 -0.03256,0.01378 -0.06513,0.02755 -0.05204,0.0618 z m -0.123553,0.171656 c 0.01309,0.03425 -0.01948,0.04803 -0.03895,0.09608 0.03256,-0.01378 0.07823,0.0066 0.110791,-0.0071 0.0063,-0.08231 -0.03928,-0.102786 -0.07184,-0.08902 z m -0.7748826,0.447178 c 0.045657,0.02048 0.2346763,0.02014 0.2410573,-0.06217 -0.03257,0.01378 -0.05875,-0.05475 -0.09132,-0.04098 0.03928,0.102786 -0.104411,-0.07524 -0.1497411,0.103128 z m 0.3259943,0.06112 c 0.01276,-0.164597 -0.03223,0.212634 0,0 z m -0.188689,0.199239 c 0,0 0.01309,0.03426 -0.0064,0.0823 0.03256,-0.01378 0.06513,-0.02755 0.06513,-0.02755 0.01947,-0.04802 0.0064,-0.0823 0.0064,-0.0823 0,0 -0.03257,0.01378 -0.06513,0.02755 z m -1.3383038,2.635635 c -0.019804,-0.150822 0.039278,0.102786 0,0 z m -0.0571,0.939545 c 0.026186,0.06853 0.00671,0.11656 -0.032236,0.212632 0.097699,-0.04133 0.1494094,-0.301992 0.032236,-0.212632 z m -1.0969155,2.772335 c 0.071844,0.08902 0.012762,-0.164597 0,0 z m 0.071844,0.08902 c 0.052042,-0.0618 -0.026186,-0.06853 0,0 z m 0,0 c -0.019475,0.04802 -0.032566,0.01377 0,0 z m -0.2595409,0.70677 c -0.013091,-0.03426 0.032566,-0.01378 0,0 z m 0.039278,0.102786 c 0.071843,0.08902 0.045329,-0.17837 0,0 z m 2.9037015,1.955829 c -0.04566,-0.02049 -0.06513,0.02755 -0.07151,0.109851 0.06514,-0.02755 0.05204,-0.0618 0.07151,-0.109851 z m -0.5596806,0.515263 c 0.013091,0.03425 0.026186,0.06853 0.00671,0.116561 0.058422,-0.144109 0.2021103,0.03391 0.2148743,-0.130678 -0.1171749,0.08935 -0.1369778,-0.06146 -0.2215861,0.01411 z m 0.04599,0.219348 c 0.019474,-0.04803 0.078224,0.0066 0.065133,-0.02755 -0.013091,-0.03426 -0.058753,-0.05475 -0.065133,0.02755 z M 5.946289,33.326564 c 0.019475,-0.04803 0.045657,0.02048 0,0 z m 3.543367,-1.4191 c -0.045657,-0.02048 -0.090987,0.157885 0.019804,0.150824 0.00638,-0.08231 0.038946,-0.09608 -0.019804,-0.150824 z M 24.206943,4.3897773 c -0.07184,-0.089012 -0.267244,-0.00637 -0.287047,-0.1571882 0,0 0.03895,-0.096077 -0.0068,-0.1165592 -0.01309,-0.034258 -0.123886,-0.027205 -0.182637,-0.08195 -0.03256,0.013773 0.03895,-0.096078 0.02585,-0.1303363 -0.176256,-0.1642494 -0.639227,-0.286828 -0.861142,-0.471565 -0.03256,0.013773 -0.0067,-0.1165593 -0.05237,-0.1370481 -0.215203,-0.068176 -0.560674,-0.081257 -0.860152,0.1250117 -0.469354,-0.040281 -0.664422,0.2412276 -1.126735,0.5163597 -0.175595,0.2334682 -0.325005,0.5354612 -0.239737,0.8575942 0.319614,0.143414 0.281324,0.6372063 0.37331,1.0758963 -0.09099,0.1578834 -0.24711,0.3433157 -0.162171,0.4665891 0.05875,0.054754 0.182307,-0.1169043 0.254151,-0.027892 -0.05842,0.1441093 -0.286386,0.2405295 -0.442839,0.2270996 0.02619,0.068527 -0.02585,0.1303364 -0.05842,0.144109 -0.234678,-0.020141 -0.527115,0.5015464 -0.787977,0.4128855 -0.3579,0.3503761 -0.846067,0.7558504 -1.360749,0.8939406 -0.10408,0.1236251 -0.240729,0.2610169 -0.416654,0.2956271 -0.150069,-0.095725 -0.5533,0.4330217 -0.677516,0.206959 -0.01277,0.1645979 -0.175595,0.2334682 -0.188356,0.3980657 -0.03256,0.013773 -0.0067,-0.1165592 -0.104415,-0.075236 -0.0063,0.0823 0.01981,0.150821 -0.05842,0.1441092 -0.03895,0.096078 -0.130266,0.055097 -0.189018,3.439e-4 -0.872255,0.6873251 -1.595427,0.8738011 -2.415972,1.3004569 -0.03256,0.01378 -0.02619,-0.06853 -0.09132,-0.04098 -0.130267,0.05509 -0.136647,0.1374 -0.214875,0.130679 -0.07823,-0.0066 0.05842,-0.144109 -0.07184,-0.08901 -0.481785,0.323176 -0.632517,-0.170267 -0.880616,-0.4235288 -0.136317,0.3362538 -0.298819,0.6039848 -0.415661,0.8922038 -0.05204,0.0618 -0.02619,-0.06853 -0.104412,-0.07524 -0.247109,0.343316 -0.369343,1.310409 -0.120913,1.76253 0.08494,0.123274 0.306523,0.10915 0.358893,0.246199 -0.01276,0.164599 -0.08427,0.274443 -0.03191,0.411493 0.05237,0.137049 0.09836,0.356394 0.09869,0.555254 0.665743,0.554211 1.55208,0.497724 2.50927,-0.06632 1.276143,-0.818356 2.591565,-1.533926 3.926131,-2.496391 0.44955,-0.110539 0.931005,-0.632577 1.491016,-0.949038 -0.03058,1.206928 -0.340845,2.770944 -0.17603,3.895227 -0.142698,0.418553 -0.291448,1.118264 -0.154139,1.378585 -0.04533,0.178371 -0.02552,0.329195 -0.07086,0.507566 0.07823,0.0066 0.09099,-0.157884 0.130266,-0.0551 -0.05842,0.144111 -0.221255,0.212983 -0.123225,0.370517 0.267573,0.205226 -0.30487,0.885143 -0.09572,1.234478 0.0063,-0.08231 -0.04599,-0.219345 0.07756,-0.391005 0.07218,0.28787 -0.06414,0.624125 -0.148419,0.89857 0.01981,0.150821 0.07151,-0.109851 0.110791,-0.0071 0.01981,0.150822 -0.0779,0.192145 -0.136646,0.137399 -0.01276,0.164598 0.136978,0.06146 0.09164,0.239835 -0.123223,0.370516 0.0077,0.713137 -0.161181,1.063166 0.04093,1.097082 -0.152486,2.372881 -0.346234,3.449821 0.03928,0.102786 0.07218,0.287869 0.09836,0.356395 -0.09736,0.240181 -0.266582,0.391352 -0.285726,0.638247 0.0198,0.150822 0.06514,-0.02755 0.156453,0.01344 -0.318623,0.453163 -0.03091,1.008069 -0.297498,1.399421 0.273624,-0.07593 0.168883,-0.350027 0.357571,-0.549234 0.104741,0.274095 -0.2075,0.644959 -0.0051,0.877734 -0.207832,0.4461 -0.180985,0.912343 -0.297499,1.399419 0.170205,0.445408 -0.01815,0.843473 -0.01111,1.158892 -0.162833,0.06887 -0.234016,0.377577 -0.246778,0.542175 -0.0068,-0.11656 -0.08461,0.07558 -0.09132,-0.04098 -0.05875,-0.05475 0.09099,-0.157885 -3.3e-4,-0.198861 -0.123554,0.171658 -0.103752,0.32248 -0.03828,0.493792 -0.279675,0.357089 -0.08329,0.871019 0.171195,1.041983 0.0846,-0.07558 0.129936,-0.253956 0.260532,-0.110195 -0.0977,0.04133 -0.214874,0.130679 -0.143028,0.219694 0.130266,-0.0551 0.208162,-0.247243 0.188357,-0.398067 0.241057,-0.06217 0.247441,-0.144451 0.4556,-0.391699 -0.01309,-0.03425 -0.09803,-0.157534 -0.01343,-0.23312 0.03256,-0.01378 0.04599,0.219346 0.123887,0.0272 -0.05875,-0.05476 -0.0527,-0.335908 0.116512,-0.487077 -0.03895,0.09608 -0.01276,0.164597 0.03928,0.102786 -0.01343,-0.233121 0.136318,-0.336253 0.292438,-0.521686 0.0068,0.116561 0.03289,0.185083 0.01343,0.233121 0.06514,-0.02755 0.117176,-0.08935 0.214874,-0.130679 0.01948,-0.04802 -0.03289,-0.185084 0.01915,-0.246895 0.06514,-0.02755 0.07184,0.08901 0.156453,0.01344 0.07756,-0.391004 0.298489,-0.802843 0.395527,-1.241884 0.05875,0.05475 -0.08427,0.274443 0.06546,0.171308 0.03223,-0.212632 0.09033,-0.555599 0.331054,-0.816618 0.0067,0.11656 0.06547,0.171311 0.104742,0.274098 0.0068,0.116559 -0.09099,0.157882 -0.08427,0.274444 0.35152,-0.268078 0.239738,-0.857593 0.519412,-1.214684 0.01782,-1.042332 0.649017,-1.667498 0.484204,-2.791781 0.195068,-0.281505 0.226974,-0.692997 0.193747,-1.07694 0.316641,-1.646317 0.450645,-3.374584 0.571558,-5.137113 -0.03256,0.01378 -0.02619,-0.06853 -0.01981,-0.150821 0.15414,-1.378586 0.242816,-2.928482 0.435903,-4.403139 0.08967,-0.953321 0.205518,-1.838115 0.32104,-2.9217685 -0.0856,-0.5209923 0.0571,-0.9395449 0.04973,-1.4538231 0.429745,-0.2613683 0.872583,-0.4884675 1.060941,-0.8865323 0.677516,-0.206959 1.321803,-0.7978684 2.083924,-1.0804163 0.05204,-0.061809 -0.07184,-0.089013 0.01276,-0.1645981 0.351853,-0.069215 0.761791,-0.4814059 1.257002,-0.5714569 -0.714811,1.297329 -1.488374,2.5399091 -2.183712,3.7892021 0.189019,-3.439e-4 0.175595,-0.2334682 0.292769,-0.3228273 0.07184,0.089011 -0.0779,0.1921452 0.07184,0.089011 0.377447,-0.398378 0.54633,-0.7484072 1.060683,-1.0853569 0.175264,-0.4323278 0.468692,-0.3574383 0.787646,-0.6117411 0.136316,-0.3362545 0.716132,-0.5018945 0.780604,-0.927161 0.534228,-0.1860884 0.80015,-0.9751549 1.321215,-1.195544 0.592246,-0.529095 0.943106,-1.1948911 1.398376,-1.7854494 0.494218,-0.6866306 0.838366,-1.4689874 0.46506,-2.54488509 C 32.588629,0.28752181 32.471126,0.17802561 32.327439,1.5033333e-6 31.734529,0.13137912 31.200374,0.31750625 30.784051,0.81199156 c -0.09132,-0.040977 -0.221586,0.014117 -0.384418,0.08299 -0.05875,-0.054754 -0.03928,-0.1027871 -0.117507,-0.1094981 -0.0063,0.082299 0.0067,0.1165583 -0.02585,0.1303354 -0.241388,-0.1367001 -0.500929,0.57007054 -0.683897,0.28926064 -0.11046,0.2059204 -0.345138,0.1857761 -0.325333,0.3366024 -0.04566,-0.020487 -0.09132,-0.040977 -0.117507,-0.1094979 -0.175595,0.2334682 -0.318623,0.4531622 -0.533826,0.3849857 -0.273293,0.2747913 -0.689947,0.5704184 -0.937716,0.5160159 -0.0977,0.041322 -0.05842,0.1441094 -0.123554,0.1716582 -0.696988,0.255002 -1.197919,0.825069 -1.817013,0.8879227 -0.123553,0.1716578 -0.30586,0.2885655 -0.461981,0.4739977 -0.04566,-0.020485 -0.09132,-0.040977 -0.18902,3.443e-4 0.01947,-0.048031 0.05204,-0.061809 0.02585,-0.1303363 -0.220923,0.4118404 -0.50126,0.3712116 -0.75508,0.597967 -0.01309,-0.034258 -0.02619,-0.068527 -0.07184,-0.089013 -0.01947,0.048031 -0.03895,0.096078 -0.05842,0.1441092 0.01309,0.034258 -0.03895,0.096078 -0.03256,0.013773 z m 5.372478,-2.8693397 c -0.01947,0.048031 -0.05204,0.061809 -0.0846,0.075581 0.01947,-0.048031 0.03256,-0.013773 0.0846,-0.075581 z m -0.188687,0.1992065 c 0.04566,0.020485 0.03256,-0.013773 0.01947,-0.048031 0.03256,-0.013773 0.03256,-0.013773 0.06514,-0.02755 0.01309,0.034259 0.02619,0.068527 0.02619,0.068527 -0.03256,0.013773 -0.05204,0.061809 -0.05204,0.061809 -0.03256,0.013773 -0.03256,0.013773 -0.06514,0.027549 0,0 0.01947,-0.048031 0.0063,-0.082299 z m -1.4524,0.6541032 c 0.104414,0.075236 -0.156121,0.1854322 0,0 z m -0.527443,0.3026909 c -0.03256,0.013773 0.04566,0.020486 0,0 z M 27.00733,3.0063271 C 26.96805,2.903541 27.07884,2.8964766 27.157072,2.9031974 27.131222,3.0335327 27.039897,2.9925534 27.00733,3.0063271 Z m -0.56001,0.3164653 c 0.08427,-0.2744433 0.280008,-0.1582277 0.44922,-0.3094003 -0.123555,0.1716571 -0.286386,0.2405284 -0.44922,0.3094003 z m 0.742317,-0.433373 c 0.02585,-0.1303363 0.01981,0.1508209 0,0 z m -1.510491,0.9970739 c -0.04599,-0.2193454 0.331716,-0.4189005 0.449219,-0.3094012 0.0846,-0.075581 -0.09132,-0.040977 0.01276,-0.164598 0.143357,-0.020839 0.104413,0.075236 0.227965,-0.09642 -0.02552,0.3291942 -0.481456,0.5220346 -0.689948,0.5704179 -0.006,0.2811573 -0.403888,0.131033 -0.357901,0.3503771 -0.20849,0.048387 -0.325664,0.1377433 -0.488496,0.2066146 0.05809,-0.3429684 0.605339,-0.4948332 0.846397,-0.5569917 z m -1.608848,0.640683 c -0.03256,0.013773 0.04566,0.020487 0,0 z m 0.137303,0.260323 c -0.0071,-0.3154189 0.188687,-0.1992063 0.423035,-0.3779242 -0.09099,0.1578833 -0.253491,0.4256134 -0.423035,0.3779242 z m 0.488168,-0.4054731 c 0.02585,-0.1303363 0.01981,0.150821 0,0 z m -0.56001,0.3164653 c 0.02585,-0.1303353 0.05237,0.137049 0,0 z m 2.228604,-0.3058149 c -0.01309,-0.034258 -0.02619,-0.068527 -0.03928,-0.1027871 0.182308,-0.1169047 0.273296,-0.2747912 0.481788,-0.3231755 -0.0779,0.1921462 -0.318954,0.2543037 -0.390468,0.3641512 0.104414,0.075236 0.475404,-0.2408734 0.572773,-0.4810591 0.390798,-0.1652915 0.814162,-0.3443578 1.041797,-0.6396366 0.03289,0.1850827 0.143358,-0.020839 0.117175,-0.089357 0.110791,-0.00707 -0.01276,0.1645981 0.03289,0.1850838 0.227965,-0.09642 0.461982,-0.4739978 0.794358,-0.4951806 -0.0063,0.0823 -0.02585,0.1303353 -0.02585,0.1303353 0.20849,-0.048387 0.214873,-0.1306789 0.40356,-0.3298885 0.02619,0.068527 -0.02585,0.1303363 -0.01276,0.164598 0.266912,-0.1924961 0.34514,-0.1857761 0.618762,-0.2617119 C 29.744897,3.0424494 29.138566,2.9407088 28.85251,3.3800934 28.78737,3.4076444 28.79376,3.3253394 28.735003,3.2705955 28.56579,3.421769 28.350916,3.552448 28.227362,3.7241057 27.250367,4.1373354 26.338837,4.721876 25.485727,5.1623062 c -0.05204,0.061809 -0.02585,0.1303362 -0.05842,0.1441092 -0.05875,-0.054754 -0.156452,-0.01343 -0.241056,0.062161 -0.02619,-0.068527 -0.01981,-0.1508208 -0.01342,-0.2331224 0.312574,-0.172002 0.93805,-0.3171538 1.021995,-0.7904603 0.11079,-0.00707 -0.01276,0.1645979 0.03289,0.1850837 0.03256,-0.013773 0.05204,-0.061809 0.136645,-0.137399 z m 3.777381,-1.79668 c -0.03895,0.096077 -0.0846,0.07558 -0.117173,0.089357 0.01947,-0.048031 0.06513,-0.02755 0.117173,-0.089357 z m -4.051005,1.8726127 c 0.02585,-0.1303363 0.05237,0.137048 0,0 z m 0.281325,0.6372063 c 0.0779,-0.1921462 0.514351,-0.3369497 0.61205,-0.3782727 -0.143028,0.219694 -0.507972,0.254648 -0.61205,0.3782727 z m -0.0977,0.041322 c 0.03289,0.1850828 -0.240727,0.261017 -0.20849,0.048387 0.0977,-0.041322 0.09132,0.040977 0.20849,-0.048387 z m -0.234343,0.178722 c 0.0067,0.1165593 -0.201779,0.1649479 -0.260532,0.1101949 0.07151,-0.1098506 0.175924,-0.034612 0.260532,-0.1101949 z M 28.222636,4.8006977 C 28.469744,4.457382 28.85383,4.17553 29.290287,4.0307265 29.10193,4.4287913 28.541588,4.5463942 28.222635,4.8006979 Z m -3.061582,1.0959287 c 0,0 0.01947,-0.048031 0.03895,-0.096078 0.03256,-0.013773 0.03256,-0.013773 0.06514,-0.02755 0.0068,0.1165593 -0.07151,0.1098506 -0.104079,0.1236248 z m 2.26018,-0.9161699 c -0.03256,0.013773 0.04566,0.020487 0,0 z M 27.330244,5.13834 c 0.241388,0.1367012 0.455599,-0.3916996 0.866204,-0.4061654 -0.045,0.3772296 -0.540539,0.2684222 -0.676856,0.6046802 -0.202109,-0.033914 -0.449219,0.3094009 -0.794686,0.296325 0.103752,-0.3224804 0.436455,-0.1448076 0.605341,-0.4948337 z m -1.015613,0.7081617 c 0.0846,-0.075581 0.156121,-0.1854323 0.351521,-0.2680784 -0.04532,0.1783712 -0.20145,0.3638033 -0.351521,0.2680784 z m -0.690275,0.3715625 c 0.0063,-0.082299 0.273293,-0.2747924 0.371322,-0.1172587 -0.156453,-0.01343 -0.266913,0.1924966 -0.371322,0.1172587 z m -0.624815,0.5428699 c 0,0 -0.01309,-0.034258 -0.02619,-0.068527 0.03256,-0.013773 0.03256,-0.013773 0.06514,-0.027549 0.01309,0.034258 0.02619,0.068527 0.02619,0.068527 -0.03256,0.013773 -0.03256,0.013773 -0.06514,0.027551 z m 0.35823,-0.1515174 c -0.01309,-0.034258 0.03895,-0.096078 0.10408,-0.1236253 0.07184,0.089013 -0.03895,0.096077 -0.10408,0.1236253 z m -0.859489,0.5227152 c -0.02619,-0.068527 0.04533,-0.178371 0.129937,-0.2539567 -0.02585,0.1303363 0.01341,0.2331225 -0.129937,0.2539567 z m 0.227965,-0.096421 c -0.05875,-0.054754 0.01947,-0.048031 0.07151,-0.1098506 -0.0063,0.0823 0.0068,0.1165593 -0.07151,0.1098506 z m 0.631856,-0.2274537 c -0.110463,0.2059199 -0.136977,-0.061463 0,0 z M 23.066018,8.135916 c 0.01342,0.2331227 -0.01981,-0.1508209 0,0 z m -1.380226,0.9419779 c -0.01309,-0.034258 -0.04566,-0.020487 -0.03928,-0.1027871 0.01309,0.034258 0.05875,0.054755 0.07184,0.089013 0,0 -0.03256,0.013773 -0.03256,0.013773 -0.0063,0.082301 -0.02585,0.1303353 -0.104079,0.1236248 -0.01309,-0.034258 0.03895,-0.096077 0.104079,-0.1236248 z m 0.273623,-0.075934 c 0.05842,-0.1441094 0.08494,0.123275 0,0 z m -1.198247,0.6262103 c -0.01309,-0.03426 0.03256,-0.01377 0,0 0.01309,0.03426 -0.0063,0.0823 -0.05204,0.06181 -0.0063,0.0823 -0.01276,0.164598 3.27e-4,0.19886 -0.162832,0.06887 -0.143027,0.2196948 -0.280007,0.1582288 0.02585,-0.1303358 0.09066,-0.3567428 0.279675,-0.3570898 0,0 0.01947,-0.04803 0.05204,-0.06181 z m 1.250948,-0.2903028 c 0.01276,-0.164599 0.01342,0.2331208 0,0 z m -0.643297,1.1874806 c -0.0396,-0.301646 0.09033,-0.5556008 0.128944,-0.8505318 0.06514,-0.02755 0.09132,0.04098 0.143357,-0.02084 0.01342,0.23312 -0.01882,0.4457538 -0.01848,0.6446108 -0.221586,0.01411 -0.10408,0.123625 -0.25382,0.226755 z m 0.74265,-0.234507 c -0.124212,-0.226062 0.05776,-0.5418268 0.122562,-0.7682338 0.03256,-0.01377 0.06514,-0.02755 0.0977,-0.041322 -0.02552,0.329193 -0.04467,0.5760888 -0.22026,0.8095558 z m -0.807452,0.460918 c -0.01309,-0.03425 0.0063,-0.0823 0.07151,-0.109851 -0.0063,0.08231 0.0067,0.11656 -0.07151,0.109851 z m 0.14061,2.248912 c 0.136647,-0.1374 0.357572,-0.549236 0.135657,-0.733974 0.240728,-0.261017 -0.05336,-0.733625 0.239407,-1.056452 -0.08527,-0.322131 0.01882,-0.445753 0.05743,-0.740686 0.09132,0.04097 0.0071,0.315419 0.117834,0.308358 0.0977,-0.04133 0.006,-0.281156 0.214542,-0.329542 -0.05808,0.342969 -0.09033,0.555601 -0.02454,0.925771 -0.110132,0.404779 -0.259211,0.90563 -0.09571,1.234477 -0.07723,0.589865 -0.225984,1.289574 -0.09473,1.831055 -0.188357,0.398064 -0.08999,0.75446 -0.245788,1.13875 -0.07823,-0.0066 -0.01981,-0.150822 -0.0396,-0.301645 -0.09703,0.43904 -0.174602,0.830043 -0.141375,1.213987 -0.03256,0.01378 -0.06514,0.02755 -0.0977,0.04133 0.189675,0.397372 -0.02454,0.925771 -0.134665,1.330549 0.02619,0.06853 0.05875,0.05475 0.104414,0.07524 -0.045,0.37723 -0.03795,0.692649 -0.109141,1.001355 0.14468,0.774601 -0.31092,1.1663 -0.192426,1.872377 -0.03224,0.212633 -0.123224,0.370515 -0.122892,0.569377 0.02619,0.06853 0.06546,0.171308 0.06546,0.171308 -0.03895,0.09608 -0.110462,0.20592 -0.116842,0.288219 9.9e-4,0.596577 -0.01782,1.042331 -0.193086,1.474659 -0.377707,0.199551 -0.259542,0.70677 -0.304541,1.084001 -0.110791,0.0071 -0.04566,-0.02048 -0.195399,0.08264 -0.01376,-0.431981 0.128615,-1.049392 0.01716,-1.440049 0.143029,-0.219694 0.0057,-0.480018 0.194407,-0.679223 0.02585,-0.130336 -0.07184,-0.08902 -0.05908,-0.253608 -0.09737,0.240182 -0.08395,0.473305 -0.142367,0.617413 -0.137642,-0.459179 0.232364,-1.371873 0.05545,-1.933841 0.175594,-0.233467 0.15546,-0.583148 0.226644,-0.891854 0.06514,-0.02755 0.02619,0.06853 0.05875,0.05475 0.188687,-0.199207 -0.1383,-0.856898 0.304868,-0.885144 0.01947,-0.04803 0.01277,-0.164596 0.03862,-0.29493 -0.05204,0.0618 -0.110461,0.205919 -0.129935,0.253956 -0.03256,0.01378 -0.04566,-0.02048 -0.03928,-0.102786 -0.07151,0.109851 -0.156122,0.185432 -0.14941,0.301992 -0.183624,-0.678528 0.09506,-1.632193 -0.056,-2.324496 0.06513,-0.02755 0.0779,-0.192145 0.169212,-0.151173 0.05204,-0.0618 0.09099,-0.157885 0.05171,-0.26067 -0.110792,0.0071 -0.04532,0.178372 -0.123555,0.171658 0.03828,-0.49379 0.213552,-0.926118 0.343157,-1.378932 0.06514,-0.02755 0.09132,0.04097 0.123886,0.02719 0.07151,-0.109851 0.02552,-0.329194 0.07086,-0.507565 -0.117174,0.08935 0.0071,0.315419 -0.181975,0.315767 -0.01981,-0.150821 0.0648,-0.226408 0.07756,-0.391004 -0.189675,-0.397371 0.0373,-1.090368 -0.171855,-1.439702 -0.05204,0.06181 -0.06514,0.02755 -0.07823,-0.0066 -0.03928,-0.102786 -0.0329,-0.185083 0.09737,-0.240181 -0.0067,-0.11656 0.0648,-0.226408 0.045,-0.377231 0.06514,-0.02755 0.09132,0.04098 0.143357,-0.02084 -0.07856,-0.205574 0.01243,-0.363456 0.10342,-0.52134 -0.18297,-0.280809 0.109472,-0.802498 -0.002,-1.193153 0.07823,0.0066 0.07184,0.08901 0.117507,0.109497 0.06514,-0.02755 -0.03289,-0.185084 0.110461,-0.205919 0.05237,0.137048 -0.09099,0.157883 -0.03862,0.294931 0.123886,0.0272 0.02585,-0.130336 0.10408,-0.123625 0.02651,0.267384 -0.207832,0.446102 -0.226976,0.692998 0.07184,0.08901 0.182636,0.08196 0.235008,0.218998 -0.103752,0.32248 -0.04434,0.774948 -0.115522,1.083654 z m -0.444158,-0.568333 c -0.01309,-0.03425 -0.02619,-0.06853 -0.0067,-0.11656 0.0846,-0.07558 0.09803,0.157538 0.0067,0.11656 z m 3.009207,-1.23298 c -0.0063,0.08231 -0.03256,0.01378 -0.06513,0.02755 0.01947,-0.04803 0.0846,-0.07558 0.06513,-0.02755 z m -3.06697,1.774803 c -0.110791,0.0071 -3.27e-4,-0.19886 -0.02651,-0.267384 0.07823,0.0066 0.05908,0.253606 0.02651,0.267384 z m -0.01178,0.761173 c -0.06514,0.02755 -0.04599,-0.219346 -0.02651,-0.267384 0.07823,0.0066 0.05908,0.253607 0.02651,0.267384 z m -0.114201,1.87909 c -0.0977,0.04133 -0.117506,-0.109497 0.01276,-0.164598 -0.01947,0.04803 0.0067,0.116559 -0.01276,0.164598 z m 0.952462,0.512542 c -0.06514,0.02755 -0.07856,-0.205573 -0.0396,-0.301648 0.07823,0.0066 0.05908,0.253608 0.0396,0.301648 z m 0.776536,0.547149 c 0.0063,-0.0823 -0.03289,-0.185083 -0.0396,-0.301646 0.03256,-0.01378 0.06514,-0.02755 0.0977,-0.04133 -0.02585,0.130335 0.0396,0.301645 -0.0581,0.342966 z m -2.070833,1.114679 c -0.03256,0.01378 -0.02619,-0.06853 -0.0198,-0.150822 0.0977,-0.04133 0.05237,0.137049 0.0198,0.150822 z m 1.21134,-0.591953 c 0.05842,-0.144109 0.05238,0.137049 0,0 z m -0.03224,0.212634 c -0.01915,0.246895 -0.01981,-0.150821 0,0 z m 0.04027,0.699361 c -0.123885,-0.0272 -0.06579,-0.370171 -0.02047,-0.54854 0.169545,0.04769 6.6e-4,0.397717 0.02047,0.54854 z m 0.853441,-0.241571 c -0.254153,0.02789 0.006,-0.281157 -0.0856,-0.520991 0.156452,0.01344 0.09836,0.356393 0.0856,0.520991 z m -0.325005,0.535461 c -0.02619,-0.06853 0.07151,-0.109852 0.0779,-0.192144 0.11079,-0.0071 0.03289,0.185082 -0.0779,0.192144 z m -1.849575,0.901696 c -0.0067,-0.116559 0.05237,0.137048 0,0 z m 1.878404,0.757699 c 0.03828,-0.49379 -0.118493,-0.706076 0.102433,-1.117915 0.176255,0.164249 0.02751,0.863959 -0.102433,1.117915 z m -0.136315,0.336254 c -0.05875,-0.05475 0.0063,-0.08231 -0.01981,-0.15082 0.04566,0.02048 0.05875,0.05475 0.123886,0.02721 0.02619,0.06853 -0.02585,0.130335 -0.104078,0.123624 z m 0.0396,0.301648 c -0.149743,0.103128 -0.06546,-0.17131 0.0063,-0.08231 -0.01947,0.04803 -0.0063,0.08231 -0.0063,0.08231 z m -0.174936,0.631185 c 0.117175,-0.08935 0.129937,-0.253955 0.116513,-0.487077 0.09132,0.04097 0.104742,0.274097 0.157112,0.411146 -0.271312,1.467944 -0.223341,2.880445 -0.468468,4.416915 -0.03289,-0.185084 -0.0527,-0.33591 -0.124549,-0.424918 0.07823,0.0066 0.0977,-0.04133 0.117176,-0.08935 0.01178,-0.761175 0.04973,-1.453825 0.133344,-2.125985 -0.0856,-0.520992 0.174273,-1.028903 0.06887,-1.70072 z m -1.926482,1.690421 c -0.175924,0.03462 -0.05237,-0.137049 -0.03961,-0.301647 0.156452,0.01344 0.01343,0.233121 0.03961,0.301647 z m -0.0779,0.192145 c 0.05842,-0.14411 0.05237,0.137047 0,0 z m 0.195729,0.116213 c -0.03256,0.01377 0.0063,-0.08231 -0.0198,-0.150822 0.07823,0.0066 0.07184,0.08902 0.0198,0.150822 z m -0.03158,0.610351 c 0.05842,-0.144109 -0.02652,-0.267384 0.05138,-0.459529 0.123886,0.0272 0.0071,0.31542 0.07888,0.404431 -0.03256,0.01378 -0.0977,0.04133 -0.130266,0.0551 z m 0.501589,-0.172357 c 0.0063,-0.08231 -0.03289,-0.185083 0.03862,-0.294933 0.130266,-0.05509 0.08527,0.322132 -0.03862,0.294933 z m -0.820541,0.426661 c 0.0977,-0.04133 0.201779,-0.164948 0.103751,-0.322481 0.208822,0.150475 9.92e-4,0.596577 -0.08999,0.754459 0.03895,-0.09608 -0.01343,-0.233119 -0.01376,-0.431978 z m 0.723504,0.01239 c -0.08493,-0.123267 0.04533,-0.178364 0.09067,-0.356736 0.0977,-0.04133 0.104414,0.07524 0.18902,-3.44e-4 -0.01915,0.246895 -0.09704,0.439041 -0.129276,0.651675 -0.05204,0.0618 -0.104079,0.123624 -0.169213,0.151173 0.03224,-0.212634 0.214544,-0.329541 0.109802,-0.603638 -0.05204,0.06181 0.01981,0.150822 -0.09099,0.157884 z m 1.10726,-0.468327 c -0.0067,-0.11656 0.05237,0.137048 0,0 z m -1.535676,1.525134 c -0.189018,3.48e-4 0.0057,-0.480015 0.05743,-0.740685 0.176255,0.164249 -0.0057,0.480016 -0.05743,0.740685 z m 0.377374,-0.398412 c 0.01948,-0.04803 0.130266,-0.0551 0.09099,-0.157884 0.04566,0.02049 0.05875,0.05476 0.123886,0.0272 -0.195069,0.281506 0.105402,0.671813 -0.167892,0.946607 0.04532,-0.178373 -0.09164,-0.239835 0.03191,-0.411492 -0.0067,-0.116561 -0.162832,0.06887 -0.15007,-0.09573 0.20849,-0.04839 0.05842,-0.144108 0.07118,-0.308707 z m -0.506981,0.851228 c 0.130267,-0.0551 0.09737,-0.240182 0.142698,-0.418553 0.143359,-0.02084 -0.02552,0.329193 0.137308,0.260322 -0.01276,0.164597 -0.227635,0.295279 -0.135986,0.535113 -0.110791,0.0071 -0.09164,-0.239834 -0.14402,-0.376882 z m 0.561003,0.280114 c -0.07184,-0.08901 0.03895,-0.09608 0.01915,-0.246896 0.110789,-0.0071 0.09164,0.239835 -0.01915,0.246896 z m -0.597968,1.009113 c -0.111121,-0.191798 -0.04632,-0.418207 0.03795,-0.69265 0.04599,0.219345 0.0856,0.520992 -0.03795,0.69265 z m 1.745499,-0.778073 c -0.123886,-0.0272 -0.05908,-0.253607 -0.06579,-0.370171 0.03256,-0.01378 0.06514,-0.02755 0.0977,-0.04133 0.06547,0.171311 0.0071,0.31542 -0.03191,0.411493 z m 0.116844,-0.288217 c -0.03256,0.01378 0.04566,0.02049 0,0 z M 21.47345,26.44079 c -0.01309,-0.03426 0.0063,-0.0823 0.04532,-0.178371 0.0846,-0.07558 0.124213,0.226062 -0.04532,0.178371 z m -1.55648,0.777729 c 0.04566,0.02049 0.0977,-0.04133 0.05842,-0.144111 0.03256,-0.01378 0.06514,-0.02755 0.0977,-0.04133 0.02619,0.06853 0.03928,0.102786 0.0198,0.150821 -0.0846,0.07558 -0.09099,0.157884 -0.188687,0.199208 0.03256,-0.01377 0.0063,-0.0823 0.01276,-0.164597 z m 0.404221,0.06783 c 0.07151,-0.109851 -0.110461,0.20592 0,0 z m -0.383756,0.480711 c -0.01309,-0.03425 -0.02619,-0.06853 -0.0198,-0.150822 0.03256,-0.01378 0.0977,-0.04133 0.130266,-0.0551 0.0198,0.150822 3.3e-4,0.19886 -0.110462,0.205921 z m 0.821535,0.169919 c -0.03256,0.01378 -0.05875,-0.05475 -0.05237,-0.137047 0.130267,-0.0551 0.0068,0.11656 0.05237,0.137047 z m -0.01947,0.04803 c 0.01309,0.03426 -0.01948,0.04803 -0.05204,0.0618 -0.01309,-0.03425 0.03256,-0.01377 0.05204,-0.0618 z m -0.618103,0.659429 c -0.149741,0.103129 -0.09803,-0.157536 -0.02619,-0.06853 0.01309,0.03426 0.02619,0.06853 0.02619,0.06853 z M 28.934143,1.5147669 c -0.0846,0.075581 -0.130266,0.055097 -0.104079,0.1236246 0.07823,0.00671 0.06514,-0.02755 0.104079,-0.1236246 z m -0.56001,0.3164651 c -0.04532,0.1783721 0.10408,-0.1236248 0,0 z M 28.65414,1.6730047 c 0.01309,0.034258 -0.0063,0.082299 -0.0063,0.082299 0.03256,-0.013773 0.110791,-0.00707 0.07151,-0.1098505 -0.03256,0.013773 -0.03256,0.013773 -0.06514,0.02755 z m 0.11079,-0.00707 c -0.03256,0.013773 0.04566,0.020485 0,0 z m -0.416652,0.2956268 c -0.03256,0.013773 0.04566,0.020486 0,0 z M 25.144331,3.6749 c 0.01309,0.034258 0.02619,0.068527 0.02619,0.068527 0.03256,-0.013773 0.03256,-0.013773 0.06513,-0.027551 0,0 -0.01309,-0.034258 -0.02619,-0.068527 -0.03256,0.013773 -0.03256,0.013773 -0.06513,0.027551 z m 0.143357,-0.020839 c 0.01981,0.150821 0.02585,-0.1303363 0,0 z m 3.577254,-0.6374411 c -0.10408,0.1236246 -0.208491,0.048387 -0.201779,0.1649478 0.0977,-0.041322 0.20211,0.033914 0.201779,-0.1649478 z m -0.299479,0.2062778 c 0.03256,-0.013773 0.06513,-0.02755 0.05204,-0.061809 -0.01947,0.048031 -0.06514,0.02755 -0.05204,0.061809 z M 26.364365,4.392673 c 0,0 0.01309,0.034258 -0.01947,0.048031 z m -8.330309,3.6427882 c 0.02619,0.068527 -0.03895,0.096077 -0.02585,0.1303363 0.04566,0.020487 0.104079,-0.1236248 0.02585,-0.1303363 z m -2.27228,1.478481 c 0.03256,-0.013773 0.06513,-0.027551 0.05204,-0.061809 -0.01947,0.048031 -0.06514,0.02755 -0.05204,0.061809 z M 28.646662,5.0193419 c -0.241057,0.062161 -0.0779,0.1921453 0,0 z M 28.37975,5.2118382 c -0.03256,0.013773 0.01309,0.034258 0,0 z m -2.305179,1.2933964 c 0.08494,0.123275 0.05842,-0.1441093 0,0 z m -0.136646,0.137399 c -0.03256,0.013773 0.04566,0.020486 0,0 z m 0.674767,2.0627835 c -0.03256,0.013773 0.01309,0.034258 0,0 z m -5.23616,2.5330849 c 0.03256,-0.01377 0.02619,0.06853 0.06513,-0.02755 -0.01309,-0.03425 -0.07823,-0.0066 -0.06513,0.02755 z m -0.806461,1.057496 c -0.03256,0.01378 0.01309,0.03426 0,0 z m -0.06447,0.425266 c 0.05237,0.137048 0.02585,-0.130336 0,0 z m 1.381215,-0.3454 c -0.0067,-0.116559 0.01981,0.150821 0,0 z m -0.442177,0.62482 c -0.006,0.281158 -0.247109,0.343315 -0.220593,0.610699 0.221584,-0.01411 0.15612,-0.185432 0.273294,-0.274791 -0.04467,0.576088 -0.03059,1.206927 -0.238416,1.653029 -0.01915,0.246895 0.11112,0.191799 0.14402,0.376882 0.117173,-0.08935 0.162501,-0.26773 0.318953,-0.254303 -0.02651,-0.267384 0.08395,-0.473302 0.04434,-0.774948 -0.130266,0.05509 -0.0648,0.226408 -0.129936,0.253957 -0.18902,3.44e-4 0.142698,-0.418554 -0.105067,-0.472958 0.01276,-0.164597 0.175593,-0.233468 0.220923,-0.41184 -0.08494,-0.123274 -0.0063,0.08231 -0.162834,0.06887 0.01243,-0.363455 -0.04632,-0.418205 -0.01441,-0.829698 -0.0977,0.04133 -0.03223,0.212633 -0.08427,0.274445 -0.06514,0.02755 -0.05238,-0.137048 -0.04599,-0.219346 z m 0.07481,1.878743 c -0.03256,0.01378 -0.04566,-0.02049 -0.03928,-0.102786 0.06514,-0.02755 0.07823,0.0066 0.05875,0.05476 -0.03256,0.01378 -0.01947,0.04803 -0.01947,0.04803 z m -0.569695,-1.589828 c 0.01947,-0.04803 0.03256,-0.01378 0,0 z m 0.717124,0.09468 c -0.0068,-0.116559 0.01981,0.15082 0,0 z m -0.448888,0.508259 c 0.03256,-0.01378 0.03895,-0.09608 -0.0068,-0.116558 -0.01947,0.04803 -0.05842,0.144108 0.0068,0.116558 z m 0,0 c 0.0067,0.116559 0.02651,0.267385 -0.02552,0.329194 0.143357,-0.02084 0.0648,-0.226407 0.09066,-0.356743 -0.03256,0.01378 -0.03256,0.01378 -0.06514,0.02755 z m -0.0057,0.480017 c 0.0067,0.116559 -0.103752,0.32248 0.02651,0.267383 0.03256,-0.01377 0.05171,-0.260669 -0.02651,-0.267383 z m 0.184288,1.076244 c 9.91e-4,0.596579 -0.206839,1.04268 -0.06249,1.618421 0.02519,-0.528053 0.200128,-1.159238 0.06249,-1.618421 z m -0.585206,0.844517 c 0.01309,0.03425 0.02619,0.06853 0.02619,0.06853 0.03256,-0.01378 0.03256,-0.01378 0.06514,-0.02755 0,0 -0.01309,-0.03425 -0.02619,-0.06853 -0.03256,0.01378 -0.03256,0.01378 -0.06514,0.02755 z m 0.260532,-0.110196 c 0.02619,0.06853 0.03928,0.102786 0.07184,0.08902 0,0 -0.01309,-0.03426 0.01947,-0.04803 -0.01309,-0.03426 -0.02619,-0.06853 -0.09132,-0.04097 z m -0.04467,0.576089 c 6.6e-4,0.397717 -0.194078,0.878081 -0.03059,1.206928 -0.01342,-0.233123 0.135325,-0.932831 0.03059,-1.206928 z m 0.24876,0.650981 c 0.05238,0.137048 0.02585,-0.130336 0,0 z m -0.46231,0.275143 c 0.01342,0.233122 0.143357,-0.02084 0,0 z m 0.462642,-0.07628 c -0.0068,-0.116559 0.05237,0.137047 0,0 z m -0.286065,0.439389 c 0.05237,0.137048 -0.05171,0.260669 -0.045,0.37723 0.07823,0.0066 0.15579,-0.384291 0.045,-0.37723 z m -0.207832,0.446102 c -0.03256,0.01378 0.01309,0.03425 0,0 z m 0.06546,0.171311 c -0.11079,0.0071 -0.143028,0.219693 -0.04532,0.17837 -0.05875,-0.05475 0.03895,-0.09608 0.04532,-0.17837 z m 0.117507,0.109498 c 0.04566,0.0205 0.11079,-0.0071 0.0846,-0.07558 -0.01309,-0.03425 -0.175924,0.03462 -0.0846,0.07558 z m -0.963241,0.845209 c 0.01309,0.03426 -0.0063,0.08231 -0.0063,0.08231 0.03256,-0.01377 0.03256,-0.01377 0.06514,-0.02755 0,0 0.01947,-0.04802 0.0063,-0.0823 -0.03256,0.01378 -0.03256,0.01378 -0.06513,0.02755 z m 0.905481,-0.303379 c -0.03256,0.01378 0.04566,0.02048 0,0 z m -0.123555,0.171658 c 0.03256,-0.01378 0.06514,-0.02755 0.05204,-0.0618 -0.01947,0.04803 -0.06513,0.02755 -0.05204,0.0618 z m 0.124548,0.424918 c 0.02619,0.06853 -0.02585,0.130335 0.03928,0.102786 -0.01309,-0.03426 0.03895,-0.09608 -0.03928,-0.102786 z m -0.312573,0.172001 c 0.02619,0.06853 0.01981,0.150821 0.05237,0.137047 0.03256,-0.01378 0.04532,-0.17837 -0.05237,-0.137047 z m 0.175925,-0.03462 c -0.03256,0.01378 0.04566,0.0205 0,0 z m 0.234676,0.02014 c 0.05237,0.137049 0.02585,-0.130335 0,0 z m -0.06513,0.02755 c -0.15612,0.185432 -0.266583,0.391352 -0.207501,0.64496 0.227967,-0.09642 -0.01243,0.363456 0.16349,0.328848 -0.07218,-0.28787 0.09033,-0.555601 0.0769,-0.788723 0.0068,0.116559 -0.09099,0.157883 -0.15612,0.185432 0.03895,-0.09608 0.11046,-0.205919 0.123223,-0.370516 z m -0.442508,0.425961 c 0.01981,0.150821 -0.03224,0.212633 0.07855,0.205573 0.03256,-0.01378 0.05171,-0.26067 -0.07855,-0.205573 z m 0.288039,0.753765 c 0.07856,0.205573 -0.0648,0.226408 -0.02552,0.329193 0.0068,0.11656 0.0063,-0.0823 0.117174,-0.08935 -0.01309,-0.03425 -0.02013,-0.349681 -0.09165,-0.239834 z m 0.02684,0.466243 c -0.104415,-0.07524 -0.299479,0.206269 -0.195069,0.281504 -0.05237,-0.137048 0.169212,-0.151174 0.195069,-0.281504 z m -0.122885,0.56938 c 0.07151,-0.10985 -0.04599,-0.219345 0,0 z m 0,0 c -0.0846,0.07558 -0.09737,0.240181 -0.136317,0.336255 0.130266,-0.0551 0.110463,-0.20592 0.136317,-0.336255 z m 0.176255,0.16425 c -0.01309,-0.03426 0.03256,-0.01378 0,0 z m 0,0 c -0.136645,0.137399 0.04599,0.219344 0,0 z m -1.162048,2.799884 c 0,0 0.03256,-0.01378 0.03256,-0.01378 0,0 0.05842,-0.144108 -0.0198,-0.150821 -0.01947,0.04802 0.0067,0.11656 -0.01276,0.164597 z m 0,0 c -0.130266,0.0551 -0.110462,0.20592 -0.01276,0.164596 0.03256,-0.01378 0.0063,-0.08231 0.01276,-0.164596 z m -0.252169,1.221048 c -0.01309,-0.03426 0.03256,-0.01378 0,0 z m -0.05204,0.0618 c 0.04566,0.02048 0.03256,-0.01378 0.05204,-0.0618 -0.03256,0.01378 -0.05204,0.0618 -0.05204,0.0618 z m -0.01948,0.04802 c 0.04566,0.02049 0.03256,-0.01378 0.01948,-0.04802 -0.03256,0.01378 -0.01948,0.04802 -0.01948,0.04802 z m 0,0 c -0.05204,0.0618 0.02619,0.06853 0,0 z m -0.0779,0.192145 c 0.03289,0.185085 -0.006,0.281158 -0.045,0.377231 0.07822,0.0066 0.123885,0.0272 0.104411,0.07524 0.03895,-0.09608 0.05171,-0.260671 0.07086,-0.507566 -0.03256,0.01378 -0.0977,0.04133 -0.130267,0.05509 z m 0.08592,0.719851 c -0.01309,-0.03426 0.03256,-0.01378 0,0 z m 0,0 c -0.03256,0.01378 -0.06514,0.02755 -0.0977,0.04133 0.02619,0.06853 0.0198,0.150822 0.08494,0.123273 -0.02619,-0.06853 0.0846,-0.07558 0.01276,-0.164597 z m -0.195068,0.281506 c 0.01309,0.03425 0.02619,0.06853 0.02619,0.06853 0.03256,-0.01378 0.03256,-0.01378 0.06514,-0.02755 0,0 -0.01309,-0.03426 -0.02619,-0.06853 -0.03256,0.01378 -0.03256,0.01378 -0.06514,0.02755 z m 0.163163,0.129987 c -0.06514,0.02755 -0.123554,0.171657 -0.02585,0.130335 -0.01309,-0.03425 0.05204,-0.0618 0.02585,-0.130335 z m -0.0779,0.192145 c 0.01309,0.03425 -0.03895,0.09608 -0.01948,0.04802 -0.05204,0.0618 -0.03895,0.09608 -0.03895,0.09608 0.09132,0.04098 0.123554,-0.171658 0.05842,-0.14411 z"
       id="text1"
       aria-label="VT" />
  </g>
</svg>
